<svg width="24" height="24" viewBox="0 0 24 24" fill="none" xmlns="http://www.w3.org/2000/svg">
<path fill-rule="evenodd" clip-rule="evenodd" d="M17 2C19.7614 2 22 4.23858 22 7V14C22 14.4589 21.6877 14.8589 21.2425 14.9701L18 15.7808V21C18 21.5523 17.5523 22 17 22C16.4477 22 16 21.5523 16 21V3C16 2.44772 16.4477 2 17 2ZM18 13.7192L20 13.2192V7C20 5.69378 19.1652 4.58254 18 4.17071V13.7192Z" fill="#353E50"/>
<path d="M4 3C4 2.44772 3.55228 2 3 2C2.44772 2 2 2.44772 2 3V7C2 9.41896 3.71776 11.4367 6 11.9V21C6 21.5523 6.44772 22 7 22C7.55228 22 8 21.5523 8 21V11.9C10.2822 11.4367 12 9.41896 12 7V3C12 2.44772 11.5523 2 11 2C10.4477 2 10 2.44772 10 3V7C10 8.30622 9.16519 9.41746 8 9.82929V3C8 2.44772 7.55228 2 7 2C6.44772 2 6 2.44772 6 3V9.82929C4.83481 9.41746 4 8.30622 4 7V3Z" fill="#353E50"/>
</svg>
