<svg width="24" height="24" viewBox="0 0 24 24" fill="none" xmlns="http://www.w3.org/2000/svg">
<path fill-rule="evenodd" clip-rule="evenodd" d="M9 9V9.7524C9 11.6597 8.17935 13.3864 7.59518 14.6155C7.55329 14.7037 7.51261 14.7892 7.47354 14.8722C7.17044 15.5153 7 16.235 7 17C7 19.7614 9.23858 22 12 22C14.7614 22 17 19.7614 17 17C17 16.235 16.8296 15.5153 16.5265 14.8722C16.4874 14.7892 16.4467 14.7037 16.4048 14.6155C15.8207 13.3864 15 11.6597 15 9.7524V9C15 7.34315 13.6569 6 12 6C10.3431 6 9 7.34315 9 9ZM12 4C14.7614 4 17 6.23858 17 9V9.7524C17 11.1918 17.6343 12.5347 18.2509 13.8401C18.2792 13.9 18.3075 13.9598 18.3356 14.0196C18.7618 14.9239 19 15.9341 19 17C19 20.866 15.866 24 12 24C8.13401 24 5 20.866 5 17C5 15.9341 5.23823 14.9239 5.66436 14.0196C5.69253 13.9598 5.72079 13.9 5.74909 13.8401C6.36567 12.5347 7 11.1918 7 9.7524V9C7 6.23858 9.23858 4 12 4Z" fill="#353E50"/>
<path fill-rule="evenodd" clip-rule="evenodd" d="M16.4722 2C15.3358 2 14.2971 2.64201 13.7889 3.65836L13.3417 4.55279C13.0947 5.04676 12.494 5.24699 12 5C11.506 4.75301 11.3058 4.15234 11.5528 3.65836L12 2.76393C12.847 1.07001 14.5783 0 16.4722 0H19C19.5523 0 20 0.447715 20 1C20 1.55228 19.5523 2 19 2H16.4722Z" fill="#353E50"/>
<path fill-rule="evenodd" clip-rule="evenodd" d="M4 2.33333C4 1.04467 5.04467 0 6.33333 0H9.33333C11.3584 0 13 1.64162 13 3.66667C13 4.95533 11.9553 6 10.6667 6H7.66667C5.64162 6 4 4.35838 4 2.33333ZM6.33333 2C6.14924 2 6 2.14924 6 2.33333C6 3.25381 6.74619 4 7.66667 4H10.6667C10.8508 4 11 3.85076 11 3.66667C11 2.74619 10.2538 2 9.33333 2H6.33333Z" fill="#353E50"/>
</svg>
