<svg width="24" height="24" viewBox="0 0 24 24" fill="none" xmlns="http://www.w3.org/2000/svg">
<path d="M12 14C11.4477 14 11 14.4477 11 15V22H9C8.44772 22 8 22.4477 8 23C8 23.5523 8.44772 24 9 24H15C15.5523 24 16 23.5523 16 23C16 22.4477 15.5523 22 15 22H13V15C13 14.4477 12.5523 14 12 14Z" fill="#353E50"/>
<path fill-rule="evenodd" clip-rule="evenodd" d="M15.0381 2H8.96213C8.5413 2 8.28609 2.23377 8.20624 2.4704C7.51132 4.52989 6.70578 7.69224 7.05344 10.2178C7.22085 11.4339 7.6307 12.3172 8.26936 12.9043C8.89208 13.4768 9.98524 14 12.0001 14C14.0149 14 15.1081 13.4768 15.7308 12.9043C16.3695 12.3172 16.7793 11.4339 16.9467 10.2178C17.2944 7.69224 16.4889 4.52989 15.7939 2.4704C15.7141 2.23377 15.4589 2 15.0381 2ZM8.96213 0C7.77024 0 6.69228 0.701641 6.31121 1.83097C4.89399 6.03107 2.52792 16 12.0001 16C21.4723 16 19.1062 6.03108 17.689 1.83097C17.3079 0.701641 16.2299 0 15.0381 0H8.96213Z" fill="#353E50"/>
</svg>
