<svg width="24" height="24" viewBox="0 0 24 24"  xmlns="http://www.w3.org/2000/svg">
<path d="M1 20C1 19.4477 1.44772 19 2 19H17C17.5523 19 18 19.4477 18 20C18 20.5523 17.5523 21 17 21H2C1.44772 21 1 20.5523 1 20Z" />
<path fill-rule="evenodd" clip-rule="evenodd" d="M1 6C1 4.34315 2.34315 3 4 3H15C16.3062 3 17.4175 3.83481 17.8293 5H19C21.2091 5 23 6.79086 23 9C23 11.2091 21.2091 13 19 13H17.3264C16.2029 15.3649 13.7924 17 11 17H8C4.13401 17 1 13.866 1 10V6ZM4 5H15C15.5523 5 16 5.44772 16 6V10C16 12.7614 13.7614 15 11 15H8C5.23858 15 3 12.7614 3 10V6C3 5.44772 3.44772 5 4 5ZM17.9291 11H19C20.1046 11 21 10.1046 21 9C21 7.89543 20.1046 7 19 7H18V10C18 10.3395 17.9758 10.6734 17.9291 11Z" />
</svg>
