<svg width="24" height="24" viewBox="0 0 24 24" fill="none" xmlns="http://www.w3.org/2000/svg">
<path d="M16 4C15.4477 4 15 4.44772 15 5C15 5.55228 15.4477 6 16 6C19.3137 6 22 8.68629 22 12C22 15.3137 19.3137 18 16 18C15.4477 18 15 18.4477 15 19C15 19.5523 15.4477 20 16 20C20.4183 20 24 16.4183 24 12C24 7.58172 20.4183 4 16 4Z" fill="#353E50"/>
<path d="M16 8C15.4477 8 15 8.44772 15 9C15 9.55228 15.4477 10 16 10C17.1046 10 18 10.8954 18 12C18 13.1046 17.1046 14 16 14C15.4477 14 15 14.4477 15 15C15 15.5523 15.4477 16 16 16C18.2091 16 20 14.2091 20 12C20 9.79086 18.2091 8 16 8Z" fill="#353E50"/>
<path fill-rule="evenodd" clip-rule="evenodd" d="M5.82843 10H3C2.44772 10 2 10.4477 2 11V13C2 13.5523 2.44772 14 3 14H5.82843L9.29289 17.4645C9.92286 18.0944 11 17.6483 11 16.7574V7.24265C11 6.35174 9.92286 5.90558 9.29289 6.53554L5.82843 10ZM5 16L7.87868 18.8787C9.76857 20.7686 13 19.4301 13 16.7574V7.24265C13 4.56993 9.76858 3.23143 7.87868 5.12133L5 8.00001H3C1.34315 8.00001 0 9.34315 0 11V13C0 14.6569 1.34315 16 3 16H5Z" fill="#353E50"/>
</svg>
