<svg width="24" height="24" viewBox="0 0 24 24" fill="none" xmlns="http://www.w3.org/2000/svg">
<path d="M3 9C3.55228 9 4 8.55228 4 8V5C4 4.44772 4.44772 4 5 4H8C8.55228 4 9 3.55228 9 3C9 2.44772 8.55228 2 8 2H5C3.34315 2 2 3.34315 2 5V8C2 8.55228 2.44772 9 3 9Z" fill="#353E50"/>
<path d="M4 16C4 15.4477 3.55228 15 3 15C2.44772 15 2 15.4477 2 16V19C2 20.6569 3.34315 22 5 22H8C8.55228 22 9 21.5523 9 21C9 20.4477 8.55228 20 8 20H5C4.44772 20 4 19.5523 4 19V16Z" fill="#353E50"/>
<path d="M20 16C20 15.4477 20.4477 15 21 15C21.5523 15 22 15.4477 22 16V19C22 20.6569 20.6569 22 19 22H16C15.4477 22 15 21.5523 15 21C15 20.4477 15.4477 20 16 20H19C19.5523 20 20 19.5523 20 19V16Z" fill="#353E50"/>
<path d="M20 8C20 8.55228 20.4477 9 21 9C21.5523 9 22 8.55228 22 8V5C22 3.34315 20.6569 2 19 2H16C15.4477 2 15 2.44772 15 3C15 3.55228 15.4477 4 16 4H19C19.5523 4 20 4.44772 20 5V8Z" fill="#353E50"/>
</svg>
