<svg width="16" height="17" viewBox="0 0 16 17" fill="none" xmlns="http://www.w3.org/2000/svg">
<path fill-rule="evenodd" clip-rule="evenodd" d="M1.29289 1.79045C1.68342 1.39993 2.31658 1.39993 2.70711 1.79045L8 7.08335L13.2929 1.79045C13.6834 1.39993 14.3166 1.39993 14.7071 1.79045C15.0976 2.18098 15.0976 2.81414 14.7071 3.20467L9.41421 8.49756L14.7071 13.7905C15.0976 14.181 15.0976 14.8141 14.7071 15.2047C14.3166 15.5952 13.6834 15.5952 13.2929 15.2047L8 9.91177L2.70711 15.2047C2.31658 15.5952 1.68342 15.5952 1.29289 15.2047C0.902369 14.8141 0.902369 14.181 1.29289 13.7905L6.58579 8.49756L1.29289 3.20467C0.902369 2.81414 0.902369 2.18098 1.29289 1.79045Z" fill="#777E91"/>
</svg>
