<svg width="24" height="24" viewBox="0 0 24 24" fill="none" xmlns="http://www.w3.org/2000/svg">
<path fill-rule="evenodd" clip-rule="evenodd" d="M10 5C6.05228 5 3 8.05228 3 12C3 15.9477 6.05228 19 10 19C13.9477 19 17 15.9477 17 12C17 11.4477 17.4477 11 18 11C18.5523 11 19 11.4477 19 12C19 17.0523 15.0523 21 10 21C4.94772 21 1 17.0523 1 12C1 6.94772 4.94772 3 10 3H20C20.5523 3 21 3.44772 21 4C21 4.55228 20.5523 5 20 5H10Z" fill="#353E50"/>
<path fill-rule="evenodd" clip-rule="evenodd" d="M22.7071 3.29289C23.0976 3.68342 23.0976 4.31658 22.7071 4.70711L20.7071 6.70711C20.3166 7.09763 19.6834 7.09763 19.2929 6.70711C18.9024 6.31658 18.9024 5.68342 19.2929 5.29289L20.5858 4L19.2929 2.70711C18.9024 2.31658 18.9024 1.68342 19.2929 1.29289C19.6834 0.902369 20.3166 0.902369 20.7071 1.29289L22.7071 3.29289Z" fill="#353E50"/>
<path d="M7 8C6.44772 8 6 8.44772 6 9V15C6 15.5523 6.44772 16 7 16C7.55228 16 8 15.5523 8 15V9C8 8.44772 7.55228 8 7 8Z" fill="#353E50"/>
<path d="M10.5 8C9.67157 8 9 8.67157 9 9.5V11.5C9 12.3284 9.67157 13 10.5 13H12V14H10C9.44772 14 9 14.4477 9 15C9 15.5523 9.44772 16 10 16H12.5C13.3284 16 14 15.3284 14 14.5V12.5C14 11.6716 13.3284 11 12.5 11H11V10H13C13.5523 10 14 9.55228 14 9C14 8.44772 13.5523 8 13 8H10.5Z" fill="#353E50"/>
</svg>
