<svg width="24" height="24" viewBox="0 0 24 24" fill="none" xmlns="http://www.w3.org/2000/svg">
<path fill-rule="evenodd" clip-rule="evenodd" d="M5 9L5.8133 21.1996C5.91836 22.7755 7.22727 24 8.80666 24H15.1933C16.7727 24 18.0816 22.7755 18.1867 21.1996L19 9H5ZM7.13777 11L7.80887 21.0665C7.84389 21.5918 8.2802 22 8.80666 22H15.1933C15.7198 22 16.1561 21.5918 16.1911 21.0665L16.8622 11H7.13777Z" fill="#353E50"/>
<path d="M14 16C14 17.1046 13.1046 18 12 18C10.8954 18 10 17.1046 10 16C10 14.8954 10.8954 14 12 14C13.1046 14 14 14.8954 14 16Z" fill="#353E50"/>
<path fill-rule="evenodd" clip-rule="evenodd" d="M5.23806 4.57166L5.5822 2.5068C5.82329 1.06024 7.07486 0 8.54138 0H15.4586C16.9251 0 18.1767 1.06024 18.4178 2.5068L18.7619 4.57166C19.5122 5.11698 20 6.00153 20 7V8C20 9.65685 18.6569 11 17 11H7C5.34315 11 4 9.65685 4 8V7C4 6.00153 4.48779 5.11698 5.23806 4.57166ZM8.54138 2H15.4586C15.9475 2 16.3646 2.35341 16.445 2.8356L16.6391 4H7.36092L7.55499 2.8356C7.63535 2.35341 8.05254 2 8.54138 2ZM7 6C6.44772 6 6 6.44772 6 7V8C6 8.55228 6.44772 9 7 9H17C17.5523 9 18 8.55228 18 8V7C18 6.44772 17.5523 6 17 6H7Z" fill="#353E50"/>
</svg>
