<svg width="24" height="24" viewBox="0 0 24 24" fill="none" xmlns="http://www.w3.org/2000/svg">
<path fill-rule="evenodd" clip-rule="evenodd" d="M16 12C16 14.2091 14.2091 16 12 16C9.79086 16 8 14.2091 8 12C8 9.79086 9.79086 8 12 8C14.2091 8 16 9.79086 16 12ZM14 12C14 13.1046 13.1046 14 12 14C10.8954 14 10 13.1046 10 12C10 10.8954 10.8954 10 12 10C13.1046 10 14 10.8954 14 12Z" fill="#353E50"/>
<path fill-rule="evenodd" clip-rule="evenodd" d="M22 12C22 17.5228 17.5228 22 12 22C6.47715 22 2 17.5228 2 12C2 6.47715 6.47715 2 12 2C17.5228 2 22 6.47715 22 12ZM20 12C20 16.4183 16.4183 20 12 20C7.58172 20 4 16.4183 4 12C4 7.58172 7.58172 4 12 4C16.4183 4 20 7.58172 20 12Z" fill="#353E50"/>
<path d="M6.05134 4.6838C6.22599 4.15986 6.79231 3.8767 7.31625 4.05134L10.3163 5.05134C10.8402 5.22599 11.1234 5.79231 10.9487 6.31625C10.7741 6.8402 10.2077 7.12336 9.6838 6.94871L6.6838 5.94871C6.15986 5.77406 5.8767 5.20774 6.05134 4.6838Z" fill="#353E50"/>
<path d="M6.10555 10.5528C6.35254 10.0588 6.95321 9.85856 7.44719 10.1055L9.44719 11.1055C9.94117 11.3525 10.1414 11.9532 9.8944 12.4472C9.64741 12.9412 9.04674 13.1414 8.55276 12.8944L6.55276 11.8944C6.05878 11.6474 5.85856 11.0467 6.10555 10.5528Z" fill="#353E50"/>
<path d="M13.7071 19.7071C14.0976 19.3166 14.0976 18.6834 13.7071 18.2929C13.3166 17.9024 12.6834 17.9024 12.2929 18.2929L10.7929 19.7929C10.4024 20.1834 10.4024 20.8166 10.7929 21.2071C11.1834 21.5976 11.8166 21.5976 12.2071 21.2071L13.7071 19.7071Z" fill="#353E50"/>
<path d="M13.7929 13.7929C14.1834 13.4024 14.8166 13.4024 15.2071 13.7929L15.7071 14.2929C16.0976 14.6834 16.0976 15.3166 15.7071 15.7071C15.3166 16.0976 14.6834 16.0976 14.2929 15.7071L13.7929 15.2071C13.4024 14.8166 13.4024 14.1834 13.7929 13.7929Z" fill="#353E50"/>
<path d="M7.8944 16.4472C8.14139 15.9532 7.94117 15.3525 7.44719 15.1055C6.95321 14.8586 6.35254 15.0588 6.10555 15.5528L5.10555 17.5528C4.85856 18.0467 5.05878 18.6474 5.55276 18.8944C6.04674 19.1414 6.64741 18.9412 6.8944 18.4472L7.8944 16.4472Z" fill="#353E50"/>
<path d="M21.8944 11.5528C22.1414 12.0467 21.9412 12.6474 21.4472 12.8944L19.4472 13.8944C18.9532 14.1414 18.3525 13.9412 18.1055 13.4472C17.8586 12.9532 18.0588 12.3525 18.5528 12.1055L20.5528 11.1055C21.0467 10.8586 21.6474 11.0588 21.8944 11.5528Z" fill="#353E50"/>
<path d="M15.9487 8.31626C16.1234 7.79231 15.8402 7.22599 15.3163 7.05134C14.7923 6.8767 14.226 7.15986 14.0513 7.6838L13.5513 9.1838C13.3767 9.70774 13.6599 10.2741 14.1838 10.4487C14.7077 10.6234 15.2741 10.3402 15.4487 9.81625L15.9487 8.31626Z" fill="#353E50"/>
</svg>
