<svg width="16" height="17" viewBox="0 0 16 17" fill="none" xmlns="http://www.w3.org/2000/svg">
<mask id="path-1-inside-1_1584_2714" fill="white">
<path fill-rule="evenodd" clip-rule="evenodd" d="M5.00008 2.5C6.16441 2.5 7.22149 2.9592 8.00008 3.70638C8.77868 2.9592 9.83575 2.5 11.0001 2.5C13.3933 2.5 15.3334 4.4401 15.3334 6.83333C15.3334 11.0788 10.6865 13.4233 8.79089 14.2031C8.28037 14.4131 7.71979 14.4131 7.20928 14.2031C5.31364 13.4233 0.666748 11.0788 0.666748 6.83333C0.666748 4.4401 2.60685 2.5 5.00008 2.5ZM7.53848 5.11137L7.07688 4.6684C6.5366 4.14992 5.80671 3.83333 5.00008 3.83333C3.34323 3.83333 2.00008 5.17648 2.00008 6.83333C2.00008 8.42175 2.85994 9.73337 4.10125 10.811C5.34363 11.8896 6.82901 12.605 7.71651 12.97C7.90208 13.0464 8.09808 13.0464 8.28365 12.97C9.17115 12.605 10.6565 11.8896 11.8989 10.811C13.1402 9.73336 14.0001 8.42175 14.0001 6.83333C14.0001 5.17648 12.6569 3.83333 11.0001 3.83333C10.1935 3.83333 9.46357 4.14991 8.92328 4.6684L8.46168 5.11137C8.20373 5.35892 7.79643 5.35892 7.53848 5.11137Z"/>
</mask>
<path fill-rule="evenodd" clip-rule="evenodd" d="M5.00008 2.5C6.16441 2.5 7.22149 2.9592 8.00008 3.70638C8.77868 2.9592 9.83575 2.5 11.0001 2.5C13.3933 2.5 15.3334 4.4401 15.3334 6.83333C15.3334 11.0788 10.6865 13.4233 8.79089 14.2031C8.28037 14.4131 7.71979 14.4131 7.20928 14.2031C5.31364 13.4233 0.666748 11.0788 0.666748 6.83333C0.666748 4.4401 2.60685 2.5 5.00008 2.5ZM7.53848 5.11137L7.07688 4.6684C6.5366 4.14992 5.80671 3.83333 5.00008 3.83333C3.34323 3.83333 2.00008 5.17648 2.00008 6.83333C2.00008 8.42175 2.85994 9.73337 4.10125 10.811C5.34363 11.8896 6.82901 12.605 7.71651 12.97C7.90208 13.0464 8.09808 13.0464 8.28365 12.97C9.17115 12.605 10.6565 11.8896 11.8989 10.811C13.1402 9.73336 14.0001 8.42175 14.0001 6.83333C14.0001 5.17648 12.6569 3.83333 11.0001 3.83333C10.1935 3.83333 9.46357 4.14991 8.92328 4.6684L8.46168 5.11137C8.20373 5.35892 7.79643 5.35892 7.53848 5.11137Z" fill="#FF582E"/>
<path d="M7.07688 4.6684L8.46168 3.22537L8.46168 3.22537L7.07688 4.6684ZM4.10125 10.811L2.7901 12.3213H2.7901L4.10125 10.811ZM7.71651 12.97L8.47737 11.1204H8.47737L7.71651 12.97ZM8.28365 12.97L9.0445 14.8197L9.04451 14.8197L8.28365 12.97ZM11.8989 10.811L10.5878 9.30078V9.30078L11.8989 10.811ZM8.92328 4.6684L10.3081 6.11143L10.3081 6.11143L8.92328 4.6684ZM8.00008 3.70638L6.61528 5.14941L8.00008 6.47833L9.38488 5.14941L8.00008 3.70638ZM7.20928 14.2031L6.44842 16.0527H6.44842L7.20928 14.2031ZM8.79089 14.2031L9.55174 16.0527L9.55174 16.0527L8.79089 14.2031ZM7.53848 5.11137L6.15368 6.5544L6.15368 6.5544L7.53848 5.11137ZM8.46168 5.11137L7.07688 3.66835L7.07688 3.66835L8.46168 5.11137ZM5.69208 6.11143L6.15368 6.5544L8.92328 3.66835L8.46168 3.22537L5.69208 6.11143ZM5.00008 5.83333C5.27067 5.83333 5.50965 5.93636 5.69208 6.11143L8.46168 3.22537C7.56354 2.36347 6.34274 1.83333 5.00008 1.83333V5.83333ZM4.00008 6.83333C4.00008 6.28105 4.4478 5.83333 5.00008 5.83333V1.83333C2.23866 1.83333 8.13007e-05 4.07191 8.13007e-05 6.83333H4.00008ZM5.41241 9.30078C4.40996 8.43049 4.00008 7.62283 4.00008 6.83333H8.13007e-05C8.13007e-05 9.22067 1.30992 11.0363 2.7901 12.3213L5.41241 9.30078ZM8.47737 11.1204C7.68011 10.7925 6.42021 10.1757 5.41241 9.30078L2.7901 12.3213C4.26705 13.6035 5.97792 14.4175 6.95566 14.8197L8.47737 11.1204ZM7.5228 11.1204C7.82465 10.9963 8.17551 10.9963 8.47737 11.1204L6.95566 14.8197C7.62865 15.0965 8.37151 15.0965 9.0445 14.8197L7.5228 11.1204ZM10.5878 9.30078C9.57995 10.1757 8.32005 10.7925 7.52279 11.1204L9.04451 14.8197C10.0222 14.4175 11.7331 13.6035 13.2101 12.3213L10.5878 9.30078ZM12.0001 6.83333C12.0001 7.62283 11.5902 8.43048 10.5878 9.30078L13.2101 12.3213C14.6902 11.0362 16.0001 9.22067 16.0001 6.83333H12.0001ZM11.0001 5.83333C11.5524 5.83333 12.0001 6.28105 12.0001 6.83333H16.0001C16.0001 4.07191 13.7615 1.83333 11.0001 1.83333V5.83333ZM10.3081 6.11143C10.4905 5.93636 10.7295 5.83333 11.0001 5.83333V1.83333C9.65742 1.83333 8.43662 2.36347 7.53848 3.22537L10.3081 6.11143ZM9.84648 6.5544L10.3081 6.11143L7.53848 3.22537L7.07688 3.66835L9.84648 6.5544ZM5.00008 4.5C5.62785 4.5 6.19415 4.74527 6.61528 5.14941L9.38488 2.26335C8.24882 1.17313 6.70096 0.5 5.00008 0.5V4.5ZM2.66675 6.83333C2.66675 5.54467 3.71142 4.5 5.00008 4.5V0.5C1.50228 0.5 -1.33325 3.33553 -1.33325 6.83333H2.66675ZM7.97013 12.3535C7.11279 12.0008 5.70253 11.3184 4.5383 10.3076C3.37567 9.29826 2.66675 8.15458 2.66675 6.83333H-1.33325C-1.33325 9.75759 0.281272 11.9089 1.91599 13.3281C3.54913 14.746 5.41013 15.6256 6.44842 16.0527L7.97013 12.3535ZM8.03003 12.3535C8.01436 12.3599 8.00492 12.3606 8.00008 12.3606C7.99524 12.3606 7.9858 12.3599 7.97013 12.3535L6.44842 16.0527C7.44636 16.4633 8.5538 16.4633 9.55174 16.0527L8.03003 12.3535ZM13.3334 6.83333C13.3334 8.15458 12.6245 9.29825 11.4619 10.3076C10.2976 11.3184 8.88737 12.0008 8.03003 12.3535L9.55174 16.0527C10.59 15.6256 12.451 14.746 14.0842 13.3281C15.7189 11.9089 17.3334 9.75759 17.3334 6.83333H13.3334ZM11.0001 4.5C12.2887 4.5 13.3334 5.54467 13.3334 6.83333H17.3334C17.3334 3.33553 14.4979 0.5 11.0001 0.5V4.5ZM9.38488 5.14941C9.80601 4.74527 10.3723 4.5 11.0001 4.5V0.5C9.2992 0.5 7.75134 1.17313 6.61528 2.26335L9.38488 5.14941ZM6.15368 6.5544C7.18549 7.54457 8.81467 7.54458 9.84648 6.5544L7.07688 3.66835C7.59279 3.17326 8.40738 3.17326 8.92328 3.66835L6.15368 6.5544Z" fill="#FF582E" mask="url(#path-1-inside-1_1584_2714)"/>
</svg>
