<svg width="24" height="24" viewBox="0 0 24 24" fill="none" xmlns="http://www.w3.org/2000/svg">
<path d="M12.0077 9.44434C12.5959 9.44434 13.1194 9.1691 13.4577 8.74078C13.7062 8.42618 13.8548 8.02921 13.8548 7.59725H13.7795H10.2206H10.1606C10.1606 8.01781 10.3014 8.40532 10.5382 8.71584C10.8756 9.15845 11.4082 9.44434 12.0077 9.44434Z" fill="#353E50"/>
<path d="M20.7259 9.71757C20.7173 9.80283 20.7044 9.88689 20.6875 9.96946C20.6706 10.052 20.6497 10.1332 20.625 10.2126C20.6003 10.292 20.5717 10.3698 20.5397 10.4457C20.4755 10.5974 20.397 10.7416 20.3058 10.8766C20.2374 10.9778 20.1619 11.0738 20.08 11.1639C20.0527 11.194 20.0247 11.2233 19.996 11.2521C19.6517 11.5964 19.2089 11.8421 18.7134 11.9435C18.5483 11.9773 18.3773 11.995 18.2022 11.995C18.1036 11.995 18.0064 11.9894 17.9108 11.9785C17.879 11.9749 17.8473 11.9706 17.8158 11.9658C17.7739 11.9594 17.7322 11.952 17.6909 11.9435C17.6581 11.9368 17.6258 11.929 17.5935 11.921C17.5038 11.8989 17.4157 11.8725 17.33 11.8411C17.3042 11.8317 17.279 11.8213 17.2537 11.8111C17.2025 11.7904 17.1518 11.7687 17.1023 11.7449C17.0284 11.7093 16.9565 11.6701 16.8867 11.6278C16.817 11.5854 16.7494 11.5398 16.6843 11.4911C16.6518 11.4667 16.6198 11.4416 16.5885 11.4158C16.5259 11.3641 16.4657 11.3094 16.4084 11.2521C16.3797 11.2233 16.3516 11.194 16.3243 11.1639C16.3238 11.1634 16.3233 11.1628 16.3228 11.1622C16.5998 10.8277 16.8349 10.4632 17.0272 10.0733C17.2489 10.496 17.6917 10.7845 18.2022 10.7845C18.9347 10.7845 19.5285 10.1907 19.5285 9.45821H17.2871C17.4978 8.86151 17.6048 8.23708 17.6048 7.59723C17.6048 7.3965 17.594 7.19737 17.5731 7.00008C17.7743 6.94876 17.985 6.92134 18.2022 6.92134C18.4813 6.92134 18.7499 6.96643 19.0011 7.0497C19.043 7.06358 19.0843 7.07852 19.1252 7.09449C19.2886 7.15835 19.4438 7.23868 19.5888 7.33344C19.7699 7.4519 19.935 7.5929 20.08 7.75246C20.1619 7.8426 20.2374 7.93861 20.3058 8.03984C20.3742 8.14103 20.4354 8.24743 20.4889 8.35837C20.5067 8.39535 20.5237 8.43283 20.5397 8.47076C20.5717 8.54661 20.6003 8.6244 20.625 8.70383C20.6373 8.74355 20.6487 8.78367 20.6591 8.82418C20.6904 8.94577 20.7129 9.07089 20.7259 9.19881C20.7346 9.28411 20.7391 9.37062 20.7391 9.45821C20.7391 9.54576 20.7346 9.63231 20.7259 9.71757ZM6.86275 18.1863V14.1515C6.86275 14.1515 6.9078 14.1348 6.99106 14.1061C7.17009 14.0602 7.34633 14.0025 7.52003 13.9356C7.56845 13.9209 7.61892 13.9057 7.67188 13.8902C7.80945 13.8497 7.96179 13.8067 8.12688 13.7625C8.15441 13.7552 8.18223 13.7478 8.21045 13.7404C8.3515 13.7034 8.50106 13.6658 8.65804 13.6286C8.7522 13.6063 8.84901 13.5841 8.94815 13.5622C9.04735 13.5404 9.14888 13.5188 9.25255 13.4978C9.28709 13.4908 9.32188 13.4838 9.35687 13.477C9.4269 13.4632 9.49782 13.4497 9.56954 13.4365C10.3227 13.2982 11.1659 13.1953 12.0077 13.1953C12.168 13.1953 12.3282 13.199 12.4878 13.206C12.7671 13.2182 13.0443 13.2405 13.3161 13.2703C13.5537 13.2963 13.7872 13.3282 14.0144 13.3641C14.0228 13.3654 14.0313 13.3666 14.0398 13.3679C14.0399 13.368 14.0401 13.368 14.0403 13.368C15.059 13.5304 15.948 13.7736 16.5062 13.946C16.6488 14 16.7935 14.0467 16.9398 14.0866C17.0585 14.1273 17.1232 14.1515 17.1232 14.1515V18.1863H6.86275ZM4.00397 11.2521C3.9753 11.2233 3.94728 11.194 3.91996 11.1639C3.83808 11.0738 3.76258 10.9778 3.69419 10.8766C3.60301 10.7416 3.52448 10.5974 3.46032 10.4457C3.42822 10.3698 3.3997 10.292 3.37501 10.2126C3.35033 10.1332 3.32937 10.052 3.3125 9.96946C3.29563 9.88689 3.28269 9.80283 3.27403 9.71757C3.26542 9.63231 3.26094 9.54576 3.26094 9.45821C3.26094 9.37062 3.26542 9.28411 3.27403 9.19881C3.28702 9.07089 3.30951 8.94577 3.34082 8.82418C3.35127 8.78367 3.36267 8.74355 3.37501 8.70383C3.3997 8.6244 3.42822 8.54661 3.46032 8.47076C3.47635 8.43283 3.49332 8.39535 3.51114 8.35837C3.56454 8.24743 3.62581 8.14103 3.69419 8.03984C3.76258 7.93861 3.83808 7.8426 3.91996 7.75246C4.007 7.65675 4.10122 7.56771 4.20181 7.48614C4.6377 7.13297 5.19304 6.92134 5.79781 6.92134C6.02033 6.92134 6.23604 6.95021 6.44169 7.00401C6.42109 7.20001 6.41044 7.39785 6.41044 7.59723C6.41044 8.23708 6.51744 8.86151 6.72822 9.45821H4.47147C4.47147 10.1907 5.06528 10.7845 5.79781 10.7845C6.31423 10.7845 6.76142 10.4892 6.98046 10.0583C7.17233 10.4505 7.4075 10.817 7.68482 11.1533C7.68168 11.1568 7.67875 11.1605 7.67561 11.1639C7.64834 11.194 7.62032 11.2233 7.5916 11.2521C7.53426 11.3094 7.47414 11.3641 7.41148 11.4158C7.38017 11.4416 7.34822 11.4667 7.31567 11.4911C7.25052 11.5398 7.18303 11.5854 7.11325 11.6278C7.04352 11.6701 6.97155 11.7093 6.89764 11.7449C6.85818 11.7639 6.81806 11.7818 6.77755 11.7987C6.74206 11.8136 6.70628 11.8279 6.67004 11.8411C6.57249 11.8768 6.47185 11.906 6.36913 11.9296C6.34912 11.9343 6.32926 11.9394 6.30905 11.9435C6.26779 11.952 6.22614 11.9594 6.18413 11.9658C6.05816 11.9851 5.92915 11.995 5.79781 11.995C5.66646 11.995 5.53746 11.9851 5.41149 11.9658C5.36948 11.9594 5.32782 11.952 5.28656 11.9435C4.79109 11.8421 4.34828 11.5964 4.00397 11.2521ZM9.1544 5.86729C9.18227 5.8214 9.21124 5.77626 9.2412 5.73191C9.30113 5.64317 9.36523 5.55742 9.43322 5.47505C9.50126 5.39268 9.57312 5.31364 9.64858 5.23814C9.79948 5.08723 9.96482 4.95066 10.1424 4.83076C10.231 4.77079 10.3228 4.715 10.4174 4.66363C10.512 4.61232 10.6093 4.56539 10.709 4.52318C10.8088 4.48097 10.9111 4.44349 11.0155 4.411C11.3289 4.31349 11.6622 4.26099 12.0077 4.26099C12.1372 4.26099 12.265 4.2684 12.3907 4.28274C12.6002 4.30672 12.8038 4.35007 12.9997 4.411C13.0912 4.43941 13.1809 4.47167 13.2687 4.50755C13.4444 4.57937 13.6126 4.66567 13.7718 4.76512C13.8515 4.81479 13.9288 4.86774 14.0038 4.92378C14.1322 5.01984 14.2535 5.12496 14.3667 5.23814C14.4422 5.31364 14.514 5.39268 14.5821 5.47505C14.6134 5.51307 14.6439 5.55184 14.6735 5.59126C14.7624 5.70957 14.8434 5.83414 14.9163 5.9638C15.0036 6.11878 15.0795 6.28104 15.1414 6.45011C15.1601 6.50122 15.1776 6.55289 15.1939 6.60515C15.2913 6.91855 15.3439 7.25172 15.3439 7.59723C15.3439 7.94269 15.2913 8.2759 15.1939 8.58931C15.1776 8.64152 15.1601 8.69323 15.1414 8.74435C15.1251 8.78904 15.1077 8.83329 15.0895 8.87709C15.0167 9.05223 14.9294 9.21986 14.8291 9.37848C14.7538 9.49738 14.6713 9.61126 14.5821 9.71936C14.514 9.80173 14.4422 9.88082 14.3667 9.95627C14.2535 10.0695 14.1322 10.1746 14.0038 10.2707C13.8931 10.3534 13.7769 10.4289 13.6561 10.4974C13.6159 10.5203 13.575 10.5423 13.5338 10.5636C13.4487 10.6075 13.3616 10.648 13.2726 10.6848C13.1835 10.7215 13.0926 10.7546 12.9997 10.7835C12.8038 10.8444 12.6002 10.8877 12.3907 10.9117C12.265 10.9261 12.1372 10.9335 12.0077 10.9335C11.6622 10.9335 11.3289 10.881 11.0155 10.7835C10.9111 10.751 10.8088 10.7135 10.709 10.6713C10.6267 10.6364 10.5465 10.5977 10.4678 10.5566C10.451 10.5479 10.4339 10.5398 10.4174 10.5308C10.3228 10.4795 10.231 10.4236 10.1424 10.3636C9.96482 10.2437 9.79948 10.1072 9.64858 9.95627C9.57312 9.88082 9.50126 9.80173 9.43322 9.71936C9.36523 9.63699 9.30113 9.55128 9.2412 9.46254C9.21124 9.41815 9.18227 9.37305 9.1544 9.32717C9.09866 9.23544 9.04725 9.14087 9.00041 9.04362C8.78958 8.60603 8.67143 8.11544 8.67143 7.59723C8.67143 7.07901 8.78958 6.58837 9.00041 6.15084C9.02948 6.09046 9.06093 6.03149 9.09348 5.9732C9.11339 5.93762 9.1333 5.90203 9.1544 5.86729ZM22.6221 7.58996C22.3803 7.01839 22.0346 6.5055 21.5948 6.06558C21.1548 5.6257 20.642 5.28009 20.0704 5.03831C19.4774 4.78751 18.8489 4.66035 18.2022 4.66035C17.7511 4.66035 17.3091 4.72366 16.8815 4.84624C16.633 4.40587 16.3272 4.00108 15.9655 3.6394C15.4522 3.12606 14.8538 2.72282 14.187 2.44076C13.4955 2.14831 12.7622 1.99999 12.0077 1.99999C11.253 1.99999 10.5198 2.14831 9.82825 2.44076C9.16147 2.72282 8.56313 3.12606 8.04984 3.6394C7.68706 4.00213 7.38052 4.40811 7.13167 4.84997C6.7 4.72485 6.25356 4.66035 5.79781 4.66035C5.15108 4.66035 4.52253 4.78751 3.92956 5.03831C3.35799 5.28009 2.8451 5.6257 2.40523 6.06558C1.96535 6.5055 1.6197 7.01839 1.37791 7.58996C1.12711 8.18293 1 8.81149 1 9.45821C1 10.1049 1.12711 10.7335 1.37791 11.3264C1.6197 11.898 1.96535 12.4109 2.40523 12.8508C2.8451 13.2907 3.35799 13.6363 3.92956 13.8781C4.14905 13.9709 4.37347 14.0466 4.60181 14.1054V14.1515V18.1863V20.4473H6.86275H17.1232H19.3841V18.1863V14.1515V14.1091C19.6174 14.0498 19.8464 13.9728 20.0704 13.8781C20.642 13.6363 21.1548 13.2907 21.5948 12.8508C22.0346 12.4109 22.3803 11.898 22.6221 11.3264C22.8728 10.7335 23 10.1049 23 9.45821C23 8.81149 22.8728 8.18293 22.6221 7.58996Z" fill="#353E50"/>
</svg>
