<svg width="24" height="24" viewBox="0 0 24 24" fill="none" xmlns="http://www.w3.org/2000/svg">
<path d="M11.0818 1.60379C11.4292 0.798737 12.5707 0.798737 12.9181 1.60379L15.0982 6.65567C15.2453 6.99656 15.5691 7.22789 15.9393 7.25649L21.5299 7.68848C22.4269 7.75779 22.7833 8.88385 22.0896 9.45664L17.8852 12.9279C17.5886 13.1728 17.4588 13.566 17.5511 13.9393L18.8451 19.1676C19.0579 20.0274 18.1303 20.719 17.367 20.2696L12.5073 17.4086C12.1942 17.2243 11.8058 17.2243 11.4927 17.4086L6.63292 20.2696C5.86962 20.719 4.9421 20.0274 5.15489 19.1676L6.44882 13.9393C6.54121 13.566 6.41134 13.1728 6.11478 12.9279L1.9104 9.45664C1.21664 8.88385 1.57304 7.75779 2.47003 7.68848L8.06068 7.25649C8.43085 7.22789 8.7547 6.99656 8.9018 6.65567L11.0818 1.60379Z" fill="#FFB04C"/>
</svg>
