<svg width="16" height="16" viewBox="0 0 16 16" fill="none" xmlns="http://www.w3.org/2000/svg">
<path fill-rule="evenodd" clip-rule="evenodd" d="M13.333 8.66671H8.99967C8.81558 8.66671 8.66634 8.81595 8.66634 9.00004V13.6667C8.66634 13.8508 8.81558 14 8.99967 14H13.333C13.7012 14 13.9997 13.7016 13.9997 13.3334V9.33337C13.9997 8.96518 13.7012 8.66671 13.333 8.66671ZM7.33301 7.33337V15.3334H13.333C14.4376 15.3334 15.333 14.4379 15.333 13.3334V9.33337C15.333 8.2288 14.4376 7.33337 13.333 7.33337H7.33301Z" fill="#23262F"/>
<path d="M10.667 7.33337H12.0003V9.33337C12.0003 9.70156 11.7018 10 11.3337 10C10.9655 10 10.667 9.70156 10.667 9.33337V7.33337Z" fill="#23262F"/>
<path fill-rule="evenodd" clip-rule="evenodd" d="M7.33366 9.00004C7.33366 8.81595 7.18442 8.66671 7.00033 8.66671H2.66699C2.2988 8.66671 2.00033 8.96518 2.00033 9.33337V13.3334C2.00033 13.7016 2.2988 14 2.66699 14H7.00033C7.18442 14 7.33366 13.8508 7.33366 13.6667V9.00004ZM2.66699 7.33337C1.56242 7.33337 0.666992 8.2288 0.666992 9.33337V13.3334C0.666992 14.4379 1.56242 15.3334 2.66699 15.3334H8.66699V7.33337H2.66699Z" fill="#23262F"/>
<path d="M4 7.33337H5.33333V9.33337C5.33333 9.70156 5.03486 10 4.66667 10C4.29848 10 4 9.70156 4 9.33337V7.33337Z" fill="#23262F"/>
<path fill-rule="evenodd" clip-rule="evenodd" d="M10 1.99996H6C5.63181 1.99996 5.33333 2.29844 5.33333 2.66663V7.33329H10.6667V2.66663C10.6667 2.29844 10.3682 1.99996 10 1.99996ZM6 0.666626C4.89543 0.666626 4 1.56206 4 2.66663V8.66663H12V2.66663C12 1.56206 11.1046 0.666626 10 0.666626H6Z" fill="#23262F"/>
<path d="M7.33301 0.666626H8.66634V2.66663C8.66634 3.03482 8.36786 3.33329 7.99967 3.33329C7.63148 3.33329 7.33301 3.03482 7.33301 2.66663V0.666626Z" fill="#23262F"/>
</svg>
