<svg width="24" height="24" viewBox="0 0 24 24" xmlns="http://www.w3.org/2000/svg">
<path d="M11.0821 1.60379C11.4295 0.798737 12.571 0.798737 12.9184 1.60379L15.0984 6.65567C15.2455 6.99656 15.5694 7.22789 15.9395 7.25649L21.5302 7.68848C22.4272 7.75779 22.7836 8.88385 22.0898 9.45664L17.8854 12.9279C17.5889 13.1728 17.459 13.566 17.5514 13.9393L18.8453 19.1676C19.0581 20.0274 18.1306 20.719 17.3673 20.2696L12.5076 17.4086C12.1944 17.2243 11.806 17.2243 11.4929 17.4086L6.63317 20.2696C5.86987 20.719 4.94234 20.0274 5.15513 19.1676L6.44907 13.9393C6.54146 13.566 6.41158 13.1728 6.11503 12.9279L1.91064 9.45664C1.21688 8.88385 1.57329 7.75779 2.47027 7.68848L8.06092 7.25649C8.43109 7.22789 8.75494 6.99656 8.90204 6.65567L11.0821 1.60379Z" />
</svg>
