<svg width="24" height="24" viewBox="0 0 24 24"  xmlns="http://www.w3.org/2000/svg">
<path fill-rule="evenodd" clip-rule="evenodd" d="M8.27279 5.23259L7.65227 9.57623C7.51961 10.5049 7.25806 11.3627 7.00025 12.1155C6.8851 12.4517 6.78038 12.7421 6.68191 13.0151C6.53682 13.4174 6.40532 13.782 6.27407 14.2002C6.09649 14.7659 6 15.3698 6 16C6 19.3137 8.68629 22 12 22C15.3137 22 18 19.3137 18 16C18 15.3698 17.9035 14.7659 17.7259 14.2002C17.5947 13.7821 17.4632 13.4174 17.3181 13.0151C17.2196 12.7421 17.1149 12.4517 16.9998 12.1155C16.7419 11.3627 16.4804 10.5049 16.3477 9.57623L15.7272 5.23259C15.4622 3.37774 13.8737 2 12 2C10.1263 2 8.53777 3.37774 8.27279 5.23259ZM12 0C14.869 0 17.3014 2.1096 17.7071 4.94975L18.3276 9.29338C18.474 10.3181 18.8258 11.2965 19.1775 12.2747C19.336 12.7155 19.4944 13.1562 19.6341 13.6012C19.8718 14.3585 20 15.1643 20 16C20 20.4183 16.4183 24 12 24C7.58172 24 4 20.4183 4 16C4 15.1643 4.12815 14.3585 4.36588 13.6012C4.50556 13.1562 4.66402 12.7155 4.82248 12.2747C5.17422 11.2965 5.52598 10.3181 5.67237 9.29338L6.29289 4.94975C6.69863 2.1096 9.13102 0 12 0Z" />
<path fill-rule="evenodd" clip-rule="evenodd" d="M12 18C13.1046 18 14 17.1046 14 16C14 14.8954 13.1046 14 12 14C10.8954 14 10 14.8954 10 16C10 17.1046 10.8954 18 12 18ZM12 20C14.2091 20 16 18.2091 16 16C16 13.7909 14.2091 12 12 12C9.79086 12 8 13.7909 8 16C8 18.2091 9.79086 20 12 20Z" />
</svg>
