<svg width="24" height="24" viewBox="0 0 24 24" fill="none" xmlns="http://www.w3.org/2000/svg">
<path fill-rule="evenodd" clip-rule="evenodd" d="M10.2071 13.7929C10.5976 14.1834 10.5976 14.8166 10.2071 15.2071L3.70711 21.7071C3.31658 22.0976 2.68342 22.0976 2.29289 21.7071C1.90237 21.3166 1.90237 20.6834 2.29289 20.2929L8.79289 13.7929C9.18342 13.4024 9.81658 13.4024 10.2071 13.7929Z" fill="#353E50"/>
<path fill-rule="evenodd" clip-rule="evenodd" d="M22 8C22 11.3137 19.3137 14 16 14C15.5927 14 15.1949 13.9594 14.8103 13.8821L14.6128 14.6723C14.1415 16.5576 11.7937 17.2078 10.4196 15.8338L8.16629 13.5804C6.79221 12.2064 7.4425 9.85861 9.32771 9.3873L10.1179 9.18975C10.0406 8.80519 10 8.40734 10 8C10 4.68629 12.6863 2 16 2C19.3137 2 22 4.68629 22 8ZM20 8C20 10.2091 18.2091 12 16 12C13.7909 12 12 10.2091 12 8C12 5.79086 13.7909 4 16 4C18.2091 4 20 5.79086 20 8ZM10.8437 11.0699L9.81279 11.3276C9.43574 11.4218 9.30569 11.8914 9.5805 12.1662L11.8338 14.4196C12.1087 14.6944 12.5782 14.5643 12.6725 14.1873L12.9302 13.1563C12.0735 12.6452 11.3549 11.9266 10.8437 11.0699Z" fill="#353E50"/>
</svg>
