<svg width="16" height="16" viewBox="0 0 16 16" fill="none" xmlns="http://www.w3.org/2000/svg">
<path d="M7.99992 1.33301C7.63173 1.33301 7.33325 1.63148 7.33325 1.99967V3.99967C7.33325 4.36786 7.63173 4.66634 7.99992 4.66634C8.36811 4.66634 8.66659 4.36786 8.66659 3.99967V1.99967C8.66659 1.63148 8.36811 1.33301 7.99992 1.33301Z" fill="#777E91"/>
<path d="M7.99992 11.333C7.63173 11.333 7.33325 11.6315 7.33325 11.9997V13.9997C7.33325 14.3679 7.63173 14.6663 7.99992 14.6663C8.36811 14.6663 8.66659 14.3679 8.66659 13.9997V11.9997C8.66659 11.6315 8.36811 11.333 7.99992 11.333Z" fill="#777E91"/>
<path d="M13.9999 7.33301C14.3681 7.33301 14.6666 7.63148 14.6666 7.99967C14.6666 8.36786 14.3681 8.66634 13.9999 8.66634H11.9999C11.6317 8.66634 11.3333 8.36786 11.3333 7.99967C11.3333 7.63148 11.6317 7.33301 11.9999 7.33301H13.9999Z" fill="#777E91"/>
<path d="M4.66659 7.99967C4.66659 7.63148 4.36811 7.33301 3.99992 7.33301H1.99992C1.63173 7.33301 1.33325 7.63148 1.33325 7.99967C1.33325 8.36786 1.63173 8.66634 1.99992 8.66634H3.99992C4.36811 8.66634 4.66659 8.36786 4.66659 7.99967Z" fill="#777E91"/>
<path d="M11.7712 3.28569C12.0315 3.02535 12.4536 3.02535 12.714 3.28569C12.9743 3.54604 12.9743 3.96815 12.714 4.2285L11.2998 5.64272C11.0394 5.90307 10.6173 5.90307 10.357 5.64272C10.0966 5.38237 10.0966 4.96026 10.357 4.69991L11.7712 3.28569Z" fill="#777E91"/>
<path d="M5.64287 10.3567C5.38252 10.0963 4.96041 10.0963 4.70006 10.3567L3.28585 11.7709C3.0255 12.0312 3.0255 12.4533 3.28585 12.7137C3.5462 12.974 3.96831 12.974 4.22866 12.7137L5.64287 11.2995C5.90322 11.0391 5.90322 10.617 5.64287 10.3567Z" fill="#777E91"/>
<path d="M12.714 11.7709C12.9743 12.0313 12.9743 12.4534 12.714 12.7138C12.4536 12.9741 12.0315 12.9741 11.7712 12.7138L10.357 11.2995C10.0966 11.0392 10.0966 10.6171 10.357 10.3567C10.6173 10.0964 11.0394 10.0964 11.2998 10.3567L12.714 11.7709Z" fill="#777E91"/>
<path d="M5.64293 5.64263C5.90328 5.38228 5.90328 4.96017 5.64293 4.69982L4.22872 3.28561C3.96837 3.02526 3.54626 3.02526 3.28591 3.28561C3.02556 3.54596 3.02556 3.96807 3.28591 4.22841L4.70013 5.64263C4.96047 5.90298 5.38259 5.90298 5.64293 5.64263Z" fill="#777E91"/>
</svg>
