<svg width="24" height="24" viewBox="0 0 24 24"  xmlns="http://www.w3.org/2000/svg">
<path fill-rule="evenodd" clip-rule="evenodd" d="M11.4334 18.9747C11.7747 18.74 12.2252 18.74 12.5665 18.9747L13.1331 19.3642C13.7586 19.7943 14.384 20 14.9999 20C16.1164 20 17.3344 19.2909 18.3725 17.8375C19.3995 16.3997 20 14.5512 20 13C20 10.1046 17.8955 8 14.9999 8C14.1868 8 13.453 8.16518 12.818 8.44981L12.409 8.63317C12.1488 8.74982 11.8511 8.74982 11.5909 8.63317L11.1819 8.44982C10.5469 8.16518 9.81303 8 8.99991 8C6.10444 8 4 10.1045 4 13C4 14.5512 4.60046 16.3998 5.6274 17.8375C6.6655 19.2909 7.88344 20 8.99991 20C9.61578 20 10.2412 19.7943 10.8668 19.3642L11.4334 18.9747ZM11.9999 6.62478C12.8993 6.22165 13.9126 6 14.9999 6C19 6 22 9 22 13C22 17 19 22 14.9999 22C13.9126 22 12.8993 21.6306 11.9999 21.0122C11.1006 21.6306 10.0872 22 8.99991 22C4.99982 22 2 17 2 13C2 9 4.99982 6 8.99991 6C10.0872 6 11.1006 6.22165 11.9999 6.62478Z" />
<path d="M8.5 12C8.22386 12 8 12.2239 8 12.5V13.5C8 14.3284 8.67157 15 9.5 15C9.77614 15 10 14.7761 10 14.5V13.5C10 12.6716 9.32843 12 8.5 12Z" />
<path d="M15.5 12C15.7761 12 16 12.2239 16 12.5V13.5C16 14.3284 15.3284 15 14.5 15C14.2239 15 14 14.7761 14 14.5V13.5C14 12.6716 14.6716 12 15.5 12Z" />
<path fill-rule="evenodd" clip-rule="evenodd" d="M8 4C9.31297 4 10.4289 4.84347 10.8356 6.01811C11.0163 6.54 11.4477 7 12 7C12.5523 7 13.0104 6.54777 12.9013 6.00638C12.4405 3.72096 10.4212 2 8 2H7C6.44772 2 6 2.44772 6 3C6 3.55228 6.44772 4 7 4H8Z" />
<path fill-rule="evenodd" clip-rule="evenodd" d="M20 4.33333C20 3.04467 18.9553 2 17.6667 2H14.6667C12.6416 2 11 3.64162 11 5.66667C11 6.95533 12.0447 8 13.3333 8H16.3333C18.3584 8 20 6.35838 20 4.33333ZM17.6667 4C17.8508 4 18 4.14924 18 4.33333C18 5.25381 17.2538 6 16.3333 6H13.3333C13.1492 6 13 5.85076 13 5.66667C13 4.74619 13.7462 4 14.6667 4H17.6667Z" />
</svg>
