<svg width="24" height="24" viewBox="0 0 24 24"  xmlns="http://www.w3.org/2000/svg">
<path d="M8 2C7.44772 2 7 2.44772 7 3L7 6C7 6.55228 6.55228 7 6 7L3 7C2.44772 7 2 7.44771 2 8C2 8.55228 2.44772 9 3 9L6 9C7.65685 9 9 7.65685 9 6L9 3C9 2.44772 8.55229 2 8 2Z" />
<path d="M7 21C7 21.5523 7.44772 22 8 22C8.55229 22 9 21.5523 9 21L9 18C9 16.3431 7.65685 15 6 15L3 15C2.44772 15 2 15.4477 2 16C2 16.5523 2.44772 17 3 17L6 17C6.55228 17 7 17.4477 7 18L7 21Z" />
<path d="M17 21C17 21.5523 16.5523 22 16 22C15.4477 22 15 21.5523 15 21L15 18C15 16.3431 16.3431 15 18 15H21C21.5523 15 22 15.4477 22 16C22 16.5523 21.5523 17 21 17H18C17.4477 17 17 17.4477 17 18L17 21Z" />
<path d="M17 3C17 2.44772 16.5523 2 16 2C15.4477 2 15 2.44772 15 3V6C15 7.65685 16.3431 9 18 9H21C21.5523 9 22 8.55228 22 8C22 7.44772 21.5523 7 21 7H18C17.4477 7 17 6.55228 17 6V3Z" />
</svg>
