<svg width="24" height="24" viewBox="0 0 24 24"  xmlns="http://www.w3.org/2000/svg">
<path fill-rule="evenodd" clip-rule="evenodd" d="M2 3C2.55228 3 3 3.44772 3 4V18C3 18.5523 3.44772 19 4 19H22C22.5523 19 23 19.4477 23 20C23 20.5523 22.5523 21 22 21H4C2.34315 21 1 19.6569 1 18V4C1 3.44772 1.44772 3 2 3Z" />
<path fill-rule="evenodd" clip-rule="evenodd" d="M20.4962 5.13174C20.9757 5.40575 21.1423 6.01661 20.8683 6.49613L17.6818 12.0725C16.9723 13.3142 15.485 13.8824 14.1283 13.4302L11.0068 12.3897C10.6094 12.2572 10.1714 12.3865 9.90972 12.7137L6.78091 16.6247C6.4359 17.0559 5.8066 17.1259 5.37534 16.7809C4.94408 16.4358 4.87416 15.8066 5.21917 15.3753L8.34798 11.4643C9.13315 10.4828 10.4469 10.0948 11.6393 10.4923L14.7608 11.5328C15.213 11.6836 15.7088 11.4941 15.9453 11.0803L19.1318 5.50385C19.4058 5.02433 20.0167 4.85773 20.4962 5.13174Z" />
</svg>
