<svg width="32" height="32" viewBox="0 0 32 32" fill="none" xmlns="http://www.w3.org/2000/svg">
<path fill-rule="evenodd" clip-rule="evenodd" d="M15.9993 26.6665C21.8904 26.6665 26.666 21.8909 26.666 15.9998C26.666 10.1088 21.8904 5.33317 15.9993 5.33317C10.1083 5.33317 5.33268 10.1088 5.33268 15.9998C5.33268 21.8909 10.1083 26.6665 15.9993 26.6665ZM15.9993 29.3332C23.3631 29.3332 29.3327 23.3636 29.3327 15.9998C29.3327 8.63604 23.3631 2.6665 15.9993 2.6665C8.63555 2.6665 2.66602 8.63604 2.66602 15.9998C2.66602 23.3636 8.63555 29.3332 15.9993 29.3332Z" fill="#B1B5C4"/>
<path fill-rule="evenodd" clip-rule="evenodd" d="M11.0565 11.057C11.5772 10.5363 12.4215 10.5363 12.9422 11.057L15.9993 14.1142L19.0565 11.057C19.5772 10.5363 20.4215 10.5363 20.9422 11.057C21.4629 11.5777 21.4629 12.4219 20.9422 12.9426L17.885 15.9998L20.9422 19.057C21.4629 19.5777 21.4629 20.4219 20.9422 20.9426C20.4215 21.4633 19.5772 21.4633 19.0565 20.9426L15.9993 17.8855L12.9422 20.9426C12.4215 21.4633 11.5772 21.4633 11.0565 20.9426C10.5358 20.4219 10.5358 19.5777 11.0565 19.057L14.1137 15.9998L11.0565 12.9426C10.5358 12.4219 10.5358 11.5777 11.0565 11.057Z" fill="#B1B5C4"/>
</svg>
