<svg width="20" height="20" viewBox="0 0 20 20" fill="none" xmlns="http://www.w3.org/2000/svg">
<path fill-rule="evenodd" clip-rule="evenodd" d="M15.8335 4.16667H4.16683C3.24635 4.16667 2.50016 4.91286 2.50016 5.83333V14.1667C2.50016 15.0871 3.24635 15.8333 4.16683 15.8333H15.8335C16.754 15.8333 17.5002 15.0871 17.5002 14.1667V5.83333C17.5002 4.91286 16.754 4.16667 15.8335 4.16667ZM4.16683 2.5C2.32588 2.5 0.833496 3.99238 0.833496 5.83333V14.1667C0.833496 16.0076 2.32588 17.5 4.16683 17.5H15.8335C17.6744 17.5 19.1668 16.0076 19.1668 14.1667V5.83333C19.1668 3.99238 17.6744 2.5 15.8335 2.5H4.16683Z" fill="#566481"/>
<path fill-rule="evenodd" clip-rule="evenodd" d="M10.8335 9.99967C10.8335 7.69849 12.699 5.83301 15.0002 5.83301H18.3335C18.7937 5.83301 19.1668 6.2061 19.1668 6.66634C19.1668 7.12658 18.7937 7.49967 18.3335 7.49967H15.0002C13.6195 7.49967 12.5002 8.61896 12.5002 9.99967C12.5002 11.3804 13.6195 12.4997 15.0002 12.4997H18.3335C18.7937 12.4997 19.1668 12.8728 19.1668 13.333C19.1668 13.7932 18.7937 14.1663 18.3335 14.1663H15.0002C12.699 14.1663 10.8335 12.3009 10.8335 9.99967Z" fill="#566481"/>
<path d="M15.8332 10.0003C15.8332 10.4606 15.4601 10.8337 14.9998 10.8337C14.5396 10.8337 14.1665 10.4606 14.1665 10.0003C14.1665 9.54009 14.5396 9.16699 14.9998 9.16699C15.4601 9.16699 15.8332 9.54009 15.8332 10.0003Z" fill="#566481"/>
</svg>
