<svg width="24" height="24" viewBox="0 0 24 24" fill="none" xmlns="http://www.w3.org/2000/svg">
<path fill-rule="evenodd" clip-rule="evenodd" d="M9.3714 3.77934L2.80958 15.7099C1.73754 17.6591 2.17685 20.0433 4.26758 20.8032C6.01869 21.4396 8.54235 22 12 22C15.4578 22 17.9814 21.4396 19.7325 20.8032C21.8232 20.0433 22.2626 17.6591 21.1905 15.7099L14.6287 3.77934C13.4889 1.70701 10.5112 1.70702 9.3714 3.77934ZM5.50762 14.9545L11.1238 4.74318C11.5038 4.0524 12.4963 4.05241 12.8763 4.74318L18.4924 14.9544C18.4109 14.997 18.3199 15.0411 18.2188 15.0861C17.2636 15.5106 15.4147 15.9999 11.9999 15.9999C8.58514 15.9999 6.73621 15.5106 5.78105 15.0861C5.67997 15.0412 5.58912 14.9971 5.50762 14.9545ZM19.4562 16.7072C19.3257 16.7765 19.1842 16.8456 19.031 16.9137C17.7362 17.4892 15.5851 17.9999 11.9999 17.9999C8.41468 17.9999 6.26361 17.4892 4.96877 16.9137C4.81566 16.8457 4.67431 16.7766 4.54387 16.7073C4.23648 17.2841 4.19595 17.8356 4.29111 18.2107C4.3746 18.5397 4.5622 18.7822 4.95072 18.9234C6.47129 19.4761 8.7627 20 12 20C15.2374 20 17.5288 19.4761 19.0494 18.9234C19.4379 18.7822 19.6255 18.5397 19.709 18.2107C19.8042 17.8356 19.7636 17.284 19.4562 16.7072Z" fill="#353E50"/>
<path d="M16.7804 11.8418L17.7468 13.5988C16.8422 14.0379 15.8033 14.121 14.8376 13.8277C13.8225 13.5194 12.9715 12.8205 12.4717 11.8848C11.9719 10.949 11.8643 9.85302 12.1726 8.83794C12.4564 7.90376 13.0709 7.10852 13.8964 6.59814L14.8628 8.35514C14.4931 8.61067 14.2182 8.98489 14.0863 9.41915C13.9322 9.92669 13.986 10.4747 14.2359 10.9426C14.4857 11.4104 14.9113 11.7599 15.4188 11.914C15.8689 12.0507 16.3508 12.0239 16.7804 11.8418Z" fill="#353E50"/>
<path d="M11 13C11 13.5523 10.5523 14 10 14C9.44772 14 9 13.5523 9 13C9 12.4477 9.44772 12 10 12C10.5523 12 11 12.4477 11 13Z" fill="#353E50"/>
</svg>
