<svg width="97" height="49" viewBox="0 0 97 49" fill="none" xmlns="http://www.w3.org/2000/svg">
<path d="M59.8525 10.3797C59.8409 10.4943 59.8236 10.6074 59.8009 10.7184C59.7782 10.8295 59.75 10.9386 59.7168 11.0454C59.6836 11.1523 59.6452 11.2568 59.6021 11.3588C59.5157 11.563 59.4101 11.7569 59.2875 11.9385C59.1955 12.0745 59.0939 12.2037 58.9838 12.3249C58.9471 12.3653 58.9094 12.4048 58.8708 12.4434C58.4077 12.9065 57.8122 13.2371 57.1459 13.3734C56.9238 13.4189 56.6938 13.4427 56.4583 13.4427C56.3257 13.4427 56.195 13.4351 56.0664 13.4205C56.0236 13.4156 55.981 13.4099 55.9386 13.4034C55.8822 13.3948 55.8262 13.3848 55.7707 13.3734C55.7266 13.3644 55.6831 13.3539 55.6396 13.3432C55.5189 13.3135 55.4004 13.2779 55.2852 13.2357C55.2505 13.223 55.2166 13.209 55.1826 13.1953C55.1137 13.1675 55.0455 13.1383 54.979 13.1063C54.8796 13.0583 54.7828 13.0057 54.689 12.9488C54.5952 12.8918 54.5044 12.8304 54.4168 12.7649C54.373 12.7322 54.3301 12.6984 54.2879 12.6636C54.2037 12.5941 54.1228 12.5206 54.0456 12.4434C54.0071 12.4048 53.9693 12.3653 53.9327 12.3249C53.932 12.3242 53.9313 12.3234 53.9306 12.3226C54.3032 11.8727 54.6193 11.3825 54.8779 10.8581C55.1762 11.4266 55.7717 11.8146 56.4583 11.8146C57.4435 11.8146 58.2421 11.016 58.2421 10.0308H55.2275C55.5109 9.22824 55.6549 8.38849 55.6549 7.52792C55.6549 7.25796 55.6403 6.99013 55.6122 6.72479C55.8827 6.65571 56.1662 6.61889 56.4583 6.61889C56.8336 6.61889 57.1949 6.67954 57.5327 6.79146C57.5891 6.8102 57.6447 6.83028 57.6996 6.8517C57.9195 6.93765 58.1282 7.04569 58.3231 7.17314C58.5668 7.33246 58.7887 7.5221 58.9838 7.7367C59.0939 7.85786 59.1955 7.98705 59.2875 8.12314C59.3795 8.25929 59.4618 8.40241 59.5337 8.55162C59.5577 8.60135 59.5805 8.65169 59.6021 8.7027C59.6452 8.80478 59.6836 8.90941 59.7168 9.01617C59.7334 9.06966 59.7487 9.12361 59.7627 9.1781C59.8048 9.34163 59.8351 9.50991 59.8525 9.68195C59.8642 9.79668 59.8702 9.91302 59.8702 10.0308C59.8702 10.1486 59.8642 10.265 59.8525 10.3797ZM41.2073 21.7696V16.343C41.2073 16.343 41.2679 16.3206 41.3799 16.282C41.6207 16.2201 41.8577 16.1426 42.0913 16.0527C42.1565 16.0329 42.2244 16.0125 42.2956 15.9915C42.4806 15.9372 42.6855 15.8792 42.9075 15.8199C42.9445 15.81 42.982 15.8001 43.0199 15.7901C43.2096 15.7403 43.4108 15.6898 43.6219 15.6398C43.7486 15.6097 43.8787 15.5799 44.0121 15.5505C44.1455 15.5211 44.2821 15.4921 44.4215 15.4639C44.4679 15.4544 44.5147 15.4451 44.5618 15.4358C44.656 15.4173 44.7514 15.3991 44.8478 15.3815C45.8608 15.1954 46.9949 15.0569 48.127 15.0569C48.3426 15.0569 48.5581 15.0619 48.7727 15.0713C49.1483 15.0878 49.5212 15.1178 49.8867 15.1578C50.2064 15.1928 50.5203 15.2357 50.8259 15.284C50.8372 15.2857 50.8487 15.2873 50.86 15.2892C50.8602 15.2892 50.8604 15.2892 50.8607 15.2893C52.2308 15.5076 53.4265 15.8348 54.1772 16.0666C54.3691 16.1392 54.5636 16.2021 54.7604 16.2558C54.9201 16.3104 55.007 16.343 55.007 16.343V21.7696H41.2073ZM37.3624 12.4434C37.3239 12.4048 37.2862 12.3653 37.2494 12.3249C37.1393 12.2037 37.0378 12.0745 36.9458 11.9385C36.8232 11.7569 36.7175 11.563 36.6313 11.3588C36.5881 11.2568 36.5497 11.1523 36.5165 11.0454C36.4833 10.9386 36.4551 10.8295 36.4325 10.7184C36.4098 10.6074 36.3924 10.4943 36.3807 10.3797C36.3691 10.265 36.3631 10.1486 36.3631 10.0308C36.3631 9.91302 36.3691 9.79668 36.3807 9.68195C36.3982 9.50991 36.4284 9.34163 36.4705 9.1781C36.4846 9.12361 36.4999 9.06966 36.5165 9.01617C36.5497 8.90941 36.5881 8.80478 36.6313 8.7027C36.6528 8.65169 36.6756 8.60135 36.6996 8.55162C36.7714 8.40241 36.8538 8.25929 36.9458 8.12314C37.0378 7.98705 37.1393 7.85786 37.2494 7.7367C37.3665 7.60798 37.4932 7.48816 37.6285 7.37851C38.2148 6.90351 38.9617 6.61889 39.7751 6.61889C40.0743 6.61889 40.3644 6.65771 40.641 6.73007C40.6133 6.99368 40.599 7.25976 40.599 7.52792C40.599 8.38849 40.7429 9.22824 41.0264 10.0308H37.9912C37.9912 11.016 38.7898 11.8146 39.7751 11.8146C40.4696 11.8146 41.0711 11.4174 41.3657 10.838C41.6237 11.3654 41.94 11.8583 42.313 12.3106C42.3088 12.3153 42.3048 12.3203 42.3006 12.3249C42.2639 12.3653 42.2262 12.4048 42.1876 12.4434C42.1105 12.5206 42.0296 12.5941 41.9453 12.6636C41.9032 12.6984 41.8603 12.7322 41.8165 12.7649C41.7289 12.8304 41.6381 12.8918 41.5443 12.9488C41.4505 13.0057 41.3537 13.0583 41.2543 13.1063C41.2012 13.1318 41.1472 13.1559 41.0927 13.1787C41.045 13.1987 40.9969 13.2179 40.9482 13.2357C40.817 13.2837 40.6816 13.323 40.5434 13.3548C40.5165 13.361 40.4898 13.3679 40.4626 13.3734C40.4072 13.3848 40.3511 13.3948 40.2946 13.4034C40.1252 13.4293 39.9517 13.4427 39.7751 13.4427C39.5984 13.4427 39.4249 13.4293 39.2555 13.4034C39.199 13.3948 39.1429 13.3848 39.0875 13.3734C38.4211 13.2371 37.8255 12.9065 37.3624 12.4434ZM44.2895 5.20119C44.327 5.13954 44.3659 5.07882 44.4062 5.01912C44.4868 4.89983 44.573 4.7845 44.6645 4.67371C44.756 4.56293 44.8526 4.45663 44.9541 4.35508C45.1571 4.15212 45.3795 3.96844 45.6182 3.80719C45.7375 3.72653 45.8609 3.65149 45.9881 3.58241C46.1153 3.51332 46.2462 3.4502 46.3804 3.39351C46.5146 3.33674 46.6521 3.28627 46.7926 3.24256C47.2141 3.11149 47.6623 3.04087 48.127 3.04087C48.3012 3.04087 48.4731 3.05078 48.6421 3.07012C48.9239 3.10232 49.1978 3.16069 49.4613 3.24256C49.5842 3.28085 49.7049 3.32422 49.823 3.37248C50.0593 3.46908 50.2855 3.58515 50.4997 3.71883C50.6068 3.7857 50.7108 3.85692 50.8116 3.93229C50.9844 4.06149 51.1475 4.20286 51.2997 4.35508C51.4012 4.45663 51.4979 4.56293 51.5894 4.67371C51.6316 4.72485 51.6726 4.77693 51.7124 4.83001C51.832 4.98913 51.9409 5.15668 52.0389 5.33105C52.1563 5.5395 52.2584 5.75772 52.3417 5.98511C52.3669 6.05379 52.3904 6.12334 52.4123 6.19356C52.5433 6.61507 52.614 7.06323 52.614 7.52792C52.614 7.99254 52.5433 8.4407 52.4123 8.86221C52.3904 8.93243 52.3669 9.00198 52.3417 9.07066C52.3197 9.13084 52.2964 9.19035 52.2719 9.24926C52.174 9.48481 52.0565 9.71026 51.9216 9.9236C51.8204 10.0835 51.7094 10.2367 51.5894 10.3821C51.4979 10.4928 51.4012 10.5992 51.2997 10.7007C51.1475 10.853 50.9844 10.9944 50.8116 11.1235C50.6628 11.2348 50.5065 11.3364 50.344 11.4285C50.2899 11.4592 50.235 11.4889 50.1796 11.5175C50.0651 11.5765 49.948 11.631 49.8282 11.6805C49.7085 11.7299 49.5861 11.7743 49.4613 11.8132C49.1978 11.8951 48.9239 11.9535 48.6421 11.9857C48.4731 12.005 48.3012 12.015 48.127 12.015C47.6623 12.015 47.2141 11.9443 46.7926 11.8132C46.6521 11.7695 46.5146 11.7191 46.3804 11.6623C46.2697 11.6155 46.1618 11.5633 46.0559 11.508C46.0334 11.4963 46.0104 11.4855 45.9881 11.4734C45.8609 11.4043 45.7375 11.3292 45.6182 11.2486C45.3795 11.0873 45.1571 10.9037 44.9541 10.7007C44.8526 10.5992 44.756 10.4928 44.6645 10.3821C44.573 10.2713 44.4868 10.156 44.4062 10.0367C44.3659 9.97695 44.327 9.9163 44.2895 9.85458C44.2145 9.73122 44.1454 9.60403 44.0824 9.47323C43.7988 8.88471 43.6399 8.22489 43.6399 7.52792C43.6399 6.83095 43.7988 6.17107 44.0824 5.58254C44.1215 5.50141 44.1638 5.42209 44.2076 5.3437C44.2343 5.29584 44.2611 5.24798 44.2895 5.20119ZM62.4028 7.51815C62.0775 6.74942 61.6127 6.05961 61.0211 5.46794C60.4294 4.87634 59.7396 4.41151 58.9709 4.08632C58.1734 3.74902 57.328 3.57799 56.4583 3.57799C55.8515 3.57799 55.257 3.66313 54.682 3.828C54.3478 3.23573 53.9365 2.69131 53.45 2.20487C52.7596 1.51446 51.9549 0.972122 51.0581 0.592779C50.128 0.199446 49.1418 -3.24249e-05 48.127 -3.24249e-05C47.112 -3.24249e-05 46.1258 0.199446 45.1958 0.592779C44.299 0.972122 43.4943 1.51446 42.8039 2.20487C42.316 2.69272 41.9037 3.23874 41.569 3.83296C40.9885 3.66474 40.388 3.57799 39.7751 3.57799C38.9052 3.57799 38.0599 3.74902 37.2624 4.08632C36.4936 4.41151 35.8038 4.87634 35.2122 5.46794C34.6206 6.05961 34.1557 6.74942 33.8305 7.51815C33.4932 8.31559 33.3223 9.16103 33.3223 10.0308C33.3223 10.9006 33.4932 11.746 33.8305 12.5435C34.1557 13.3122 34.6206 14.002 35.2122 14.5937C35.8038 15.1853 36.4936 15.6501 37.2624 15.9753C37.5576 16.1001 37.8594 16.2019 38.1665 16.281V16.343V21.7696V24.8105H41.2073H55.007H58.0479V21.7696V16.343V16.2859C58.3616 16.2062 58.6697 16.1027 58.9709 15.9753C59.7396 15.6501 60.4294 15.1853 61.0211 14.5937C61.6127 14.002 62.0775 13.3122 62.4028 12.5435C62.74 11.746 62.911 10.9006 62.911 10.0308C62.911 9.16103 62.74 8.31559 62.4028 7.51815Z" fill="#353E50"/>
<path d="M48.1268 10.0122C48.9178 10.0122 49.622 9.64203 50.0769 9.06596C50.4111 8.6429 50.6111 8.10893 50.6111 7.52796H50.5098H45.7232H45.6426C45.6426 8.0936 45.8319 8.61479 46.1503 9.03242C46.6042 9.62771 47.3205 10.0122 48.1268 10.0122Z" fill="#353E50"/>
<path d="M4.39696 39.9087H4.28115H3.12826V39.535L3.91888 39.5354C4.19607 39.5356 4.44535 39.3778 4.57582 39.1333C4.97477 38.3858 5.61712 37.9092 6.44596 37.9092C7.67523 37.9092 8.46444 38.6838 8.63031 39.9087H4.39696ZM11.1951 36.8051C10.057 35.4852 8.40647 34.7875 6.42213 34.7875C4.44609 34.7875 2.79644 35.4555 1.65139 36.7192C0.571057 37.9116 0 39.5467 0 41.4479C0 43.3401 0.580696 44.9654 1.6793 46.1481C2.85609 47.4149 4.57026 48.0845 6.63654 48.0845C9.96113 48.0845 12.1623 46.4206 12.6755 43.5197L12.7034 43.3625H8.67851L8.65127 43.4605C8.42387 44.2791 7.67074 44.7678 6.63654 44.7678C5.20478 44.7678 4.41831 44.0496 4.1713 42.5107H12.8048L12.8194 42.3935C12.8443 42.1946 12.8443 41.929 12.8443 41.829C12.8443 39.7935 12.274 38.0562 11.1951 36.8051Z" fill="#353E50"/>
<path d="M67.0162 39.9087H66.9004H65.7475V39.535L66.538 39.5354C66.8152 39.5356 67.0646 39.3778 67.195 39.1333C67.594 38.3858 68.2364 37.9092 69.0652 37.9092C70.2944 37.9092 71.0836 38.6838 71.2495 39.9087H67.0162ZM73.8143 36.8051C72.6762 35.4852 71.0257 34.7875 69.0413 34.7875C67.0653 34.7875 65.4157 35.4555 64.2705 36.7192C63.1903 37.9116 62.6191 39.5467 62.6191 41.4479C62.6191 43.3401 63.1998 44.9654 64.2985 46.1481C65.4752 47.4149 67.1895 48.0845 69.2557 48.0845C72.5803 48.0845 74.7815 46.4206 75.2947 43.5197L75.3226 43.3625H71.2977L71.2705 43.4605C71.0431 44.2791 70.2899 44.7678 69.2557 44.7678C67.824 44.7678 67.0375 44.0496 66.7905 42.5107H75.424L75.4386 42.3935C75.4635 42.1946 75.4635 41.929 75.4635 41.829C75.4635 39.7935 74.8932 38.0562 73.8143 36.8051Z" fill="#353E50"/>
<path d="M19.0916 45.006C18.2779 45.006 17.7725 44.601 17.7725 43.949C17.7725 43.303 18.182 42.9229 18.9891 42.8194C19.9574 42.6983 21.0291 42.5336 21.7204 42.1102C21.7027 43.2482 20.983 45.006 19.0916 45.006ZM20.0682 34.7876C18.3104 34.7876 16.7992 35.273 15.698 36.1912C14.6666 37.0512 14.0986 38.216 14.0986 39.471V39.6049H18.0822V39.471C18.0822 38.4269 18.6946 37.9613 20.0682 37.9613C20.6854 37.9613 21.7208 38.1172 21.7208 39.1613C21.7208 39.8833 20.9221 40.0595 18.1751 40.2903C16.737 40.4133 15.6047 40.7798 14.8098 41.3798C13.9744 42.0104 13.5508 42.8668 13.5508 43.9252C13.5508 46.413 15.318 48.0845 17.9483 48.0845C19.5637 48.0845 20.8314 47.4327 21.816 46.0936L22.4358 45.2509L22.7368 45.4723L22.1848 46.2227C21.9453 46.5485 21.816 46.9424 21.816 47.3469V47.7272H25.9187V39.9474C25.9187 36.6201 23.8409 34.7876 20.0682 34.7876Z" fill="#353E50"/>
<path d="M44.2343 43.2257C44.0041 44.1466 43.2513 44.6964 42.2205 44.6964C40.6218 44.6964 39.8772 43.6642 39.8772 41.4479C39.8772 39.2926 40.6618 38.0565 42.0299 38.0565C43.0703 38.0565 43.7951 38.7202 44.0184 39.8774L44.0394 39.9859H48.2015L48.1627 39.8213C47.8062 38.3094 47.0829 37.0525 46.0709 36.1863C44.9865 35.2582 43.6189 34.7875 42.0062 34.7875C40.0301 34.7875 38.3804 35.4555 37.2354 36.7192C36.155 37.9116 35.584 39.5467 35.584 41.4479C35.584 43.3401 36.1647 44.9654 37.2633 46.1481C38.4401 47.4149 40.1542 48.0845 42.2205 48.0845C43.7569 48.0845 45.1114 47.6873 46.1375 46.9361C47.2787 46.1005 47.9927 44.8705 48.2596 43.2803L48.2859 43.1243H44.2597L44.2343 43.2257Z" fill="#353E50"/>
<path d="M60.5814 36.0834C59.838 35.2393 58.7092 34.8113 57.2267 34.8113C55.502 34.8113 54.2569 35.525 53.4304 36.9908L52.9327 37.911L52.6041 37.7332L53.1562 36.7124C53.3362 36.3797 53.4304 36.0074 53.4304 35.6292V30.4524H49.2324V47.7271H53.4304V41.5431C53.4304 39.2826 54.6312 38.2709 55.8213 38.2709C57.197 38.2709 57.4024 39.4853 57.4024 40.2093V47.7271H61.6004V39.328C61.6004 37.9427 61.2576 36.851 60.5814 36.0834Z" fill="#353E50"/>
<path d="M84.0876 33.7928V30.4524H80.7858C79.7731 30.4524 78.9091 30.7179 78.2871 31.2205C77.6214 31.7582 77.2697 32.5438 77.2697 33.4922V35.1447H75.4355V38.1994H77.2697V47.7271H81.4675V39.332C81.4675 38.9127 81.1277 38.573 80.7086 38.573H80.1989V38.1994H81.4675H84.0876V35.1447H81.4675V33.7928H84.0876Z" fill="#353E50"/>
<path d="M91.6217 39.9106L89.8118 39.601C88.4221 39.3594 88.4221 38.8696 88.4221 38.7087C88.4221 38.3139 88.6306 37.6516 90.0271 37.6516C91.0652 37.6516 91.7994 38.2468 91.9432 39.205L91.9603 39.319H95.8593L95.8536 39.1797C95.8046 37.9676 95.2165 36.8609 94.1976 36.0635C93.1308 35.2288 91.6886 34.7876 90.0271 34.7876C88.3897 34.7876 87.0063 35.1672 86.0267 35.8853C85.0501 36.6013 84.5338 37.6023 84.5338 38.7801C84.5338 41.0047 85.8531 42.2428 88.8116 42.7943L90.8602 43.1754C92.1799 43.4199 92.1799 43.9256 92.1799 44.0919C92.1799 44.5307 91.8477 45.0537 90.2652 45.0537C88.9585 45.0537 88.1737 44.4658 88.1122 43.4407L88.1047 43.3149H84.1289V43.4487C84.1289 44.7946 84.6935 45.9461 85.7615 46.7788C86.8569 47.633 88.4144 48.0845 90.2652 48.0845C92.0139 48.0845 93.5094 47.6891 94.5902 46.9412C95.6508 46.2071 96.2349 45.1614 96.2349 43.9966C96.2349 41.7064 94.812 40.4463 91.6217 39.9106Z" fill="#353E50"/>
<path d="M35.0416 38.1994V35.1447H32.4691V31.4528H28.3187V35.1447H26.1035V38.1994H28.2711H29.5398V38.573H29.03C28.6109 38.573 28.2711 38.9127 28.2711 39.332V45.0445C28.2711 46.526 29.4721 47.7271 30.9536 47.7271H35.0416V44.3867H32.4691V38.1994H35.0416Z" fill="#353E50"/>
</svg>
