<svg width="16" height="16" viewBox="0 0 16 16" fill="none" xmlns="http://www.w3.org/2000/svg">
<path fill-rule="evenodd" clip-rule="evenodd" d="M2 3.33366C2 1.8609 3.19391 0.666992 4.66667 0.666992H10.2288C10.936 0.666992 11.6143 0.947944 12.1144 1.44804L13.219 2.55261C13.719 3.05271 14 3.73098 14 4.43823V12.667C14 14.1398 12.8061 15.3337 11.3333 15.3337H4.66667C3.19391 15.3337 2 14.1398 2 12.667V3.33366ZM12.6667 5.33366V12.667C12.6667 13.4034 12.0697 14.0003 11.3333 14.0003H4.66667C3.93029 14.0003 3.33333 13.4034 3.33333 12.667V3.33366C3.33333 2.59728 3.93029 2.00033 4.66667 2.00033H9.33333V3.33366C9.33333 4.43823 10.2288 5.33366 11.3333 5.33366H12.6667ZM12.5927 4.00033C12.5272 3.81206 12.4198 3.63904 12.2761 3.49542L11.1716 2.39085C11.028 2.24723 10.8549 2.13975 10.6667 2.07429V3.33366C10.6667 3.70185 10.9651 4.00033 11.3333 4.00033H12.5927Z" fill="#FB8C00"/>
<path d="M7.74481 6.05059C7.66618 6.08312 7.59252 6.13134 7.5286 6.19526L5.5286 8.19526C5.26825 8.45561 5.26825 8.87772 5.5286 9.13807C5.78895 9.39842 6.21106 9.39842 6.47141 9.13807L7.33334 8.27614V11.3333C7.33334 11.7015 7.63181 12 8 12C8.36819 12 8.66667 11.7015 8.66667 11.3333V8.27614L9.5286 9.13807C9.78895 9.39842 10.2111 9.39842 10.4714 9.13807C10.7318 8.87772 10.7318 8.45561 10.4714 8.19526L8.47141 6.19526C8.27498 5.99883 7.98646 5.9506 7.74481 6.05059Z" fill="#FB8C00"/>
</svg>
