<svg width="12" height="16" viewBox="0 0 12 16" fill="none" xmlns="http://www.w3.org/2000/svg">
<path fill-rule="evenodd" clip-rule="evenodd" d="M0 3.33366C0 1.8609 1.19391 0.666992 2.66667 0.666992H8.22876C8.93601 0.666992 9.61429 0.947944 10.1144 1.44804L11.219 2.55261C11.719 3.05271 12 3.73098 12 4.43823V12.667C12 14.1398 10.8061 15.3337 9.33333 15.3337H2.66667C1.19391 15.3337 0 14.1398 0 12.667V3.33366ZM10.6667 5.33366V12.667C10.6667 13.4034 10.0697 14.0003 9.33333 14.0003H2.66667C1.93029 14.0003 1.33333 13.4034 1.33333 12.667V3.33366C1.33333 2.59728 1.93029 2.00033 2.66667 2.00033H7.33333V3.33366C7.33333 4.43823 8.22876 5.33366 9.33333 5.33366H10.6667ZM10.5927 4.00033C10.5272 3.81206 10.4198 3.63904 10.2761 3.49542L9.17157 2.39085C9.02795 2.24723 8.85494 2.13975 8.66667 2.07429V3.33366C8.66667 3.70185 8.96514 4.00033 9.33333 4.00033H10.5927Z" fill="#FB8C00"/>
</svg>
