<svg width="74" height="45" viewBox="0 0 74 45" fill="none" xmlns="http://www.w3.org/2000/svg">
<path d="M45.7212 8.10555C45.7123 8.19314 45.6991 8.27951 45.6817 8.36434C45.6644 8.44917 45.6429 8.53252 45.6175 8.61413C45.5921 8.69574 45.5628 8.77561 45.5299 8.85359C45.4639 9.00949 45.3833 9.15763 45.2896 9.2963C45.2193 9.40031 45.1417 9.49895 45.0576 9.5915C45.0296 9.62239 45.0008 9.65255 44.9713 9.68206C44.6175 10.0358 44.1626 10.2883 43.6536 10.3925C43.4839 10.4272 43.3083 10.4454 43.1284 10.4454C43.0271 10.4454 42.9273 10.4396 42.829 10.4284C42.7964 10.4247 42.7638 10.4203 42.7314 10.4154C42.6883 10.4088 42.6455 10.4012 42.6031 10.3925C42.5694 10.3856 42.5362 10.3775 42.503 10.3693C42.4108 10.3466 42.3203 10.3195 42.2322 10.2873C42.2058 10.2776 42.1799 10.2669 42.1539 10.2564C42.1013 10.2351 42.0492 10.2129 41.9984 10.1884C41.9224 10.1518 41.8485 10.1116 41.7768 10.0681C41.7052 10.0246 41.6358 9.97766 41.5689 9.9276C41.5355 9.9026 41.5027 9.87683 41.4705 9.85024C41.4061 9.79716 41.3444 9.74096 41.2854 9.68206C41.2559 9.65255 41.2271 9.62239 41.1991 9.5915C41.1986 9.59094 41.1981 9.59032 41.1976 9.58976C41.4821 9.24609 41.7236 8.87164 41.9211 8.471C42.149 8.90533 42.6039 9.20171 43.1284 9.20171C43.881 9.20171 44.491 8.59163 44.491 7.83909H42.1882C42.4047 7.22605 42.5147 6.58452 42.5147 5.92714C42.5147 5.72092 42.5035 5.51633 42.482 5.31364C42.6887 5.26092 42.9053 5.23274 43.1284 5.23274C43.4151 5.23274 43.691 5.27907 43.9491 5.36462C43.9922 5.37888 44.0347 5.39423 44.0766 5.41064C44.2446 5.47624 44.404 5.55877 44.5529 5.65613C44.739 5.77783 44.9086 5.92269 45.0576 6.08663C45.1417 6.17923 45.2193 6.27787 45.2896 6.38188C45.3598 6.48583 45.4227 6.59515 45.4777 6.70913C45.496 6.74712 45.5134 6.78563 45.5299 6.82459C45.5628 6.90252 45.5921 6.98244 45.6175 7.06405C45.6302 7.10486 45.6419 7.14607 45.6526 7.1877C45.6847 7.31262 45.7079 7.44117 45.7212 7.57258C45.7301 7.66022 45.7347 7.74909 45.7347 7.83909C45.7347 7.92903 45.7301 8.01796 45.7212 8.10555ZM31.4784 16.8062V12.6609C31.4784 12.6609 31.5247 12.6438 31.6102 12.6143C31.7941 12.5671 31.9752 12.5079 32.1537 12.4391C32.2034 12.424 32.2553 12.4084 32.3097 12.3924C32.451 12.3509 32.6075 12.3067 32.7771 12.2613C32.8054 12.2537 32.834 12.2462 32.863 12.2385C33.0079 12.2005 33.1616 12.1619 33.3228 12.1237C33.4196 12.1007 33.519 12.0779 33.6209 12.0555C33.7228 12.033 33.8271 12.0109 33.9336 11.9893C33.9691 11.9821 34.0049 11.975 34.0408 11.9679C34.1128 11.9538 34.1856 11.9399 34.2593 11.9264C35.0331 11.7842 35.8994 11.6785 36.7642 11.6785C36.9289 11.6785 37.0935 11.6823 37.2575 11.6895C37.5444 11.7021 37.8292 11.725 38.1085 11.7555C38.3526 11.7823 38.5924 11.8151 38.8259 11.8519C38.8345 11.8533 38.8433 11.8545 38.8519 11.8559C38.8521 11.8559 38.8522 11.8559 38.8525 11.856C39.8991 12.0228 40.8124 12.2727 41.3859 12.4497C41.5325 12.5052 41.6811 12.5532 41.8314 12.5942C41.9534 12.636 42.0198 12.6609 42.0198 12.6609V16.8062H31.4784ZM28.5413 9.68206C28.5119 9.65255 28.4831 9.62239 28.455 9.5915C28.3709 9.49895 28.2933 9.40031 28.2231 9.2963C28.1294 9.15763 28.0487 9.00949 27.9828 8.85359C27.9498 8.77561 27.9205 8.69574 27.8951 8.61413C27.8698 8.53252 27.8482 8.44917 27.8309 8.36434C27.8136 8.27951 27.8003 8.19314 27.7914 8.10555C27.7825 8.01796 27.7779 7.92903 27.7779 7.83909C27.7779 7.74909 27.7825 7.66022 27.7914 7.57258C27.8047 7.44117 27.8278 7.31262 27.86 7.1877C27.8707 7.14607 27.8825 7.10486 27.8951 7.06405C27.9205 6.98244 27.9498 6.90252 27.9828 6.82459C27.9992 6.78563 28.0167 6.74712 28.035 6.70913C28.0899 6.59515 28.1528 6.48583 28.2231 6.38188C28.2933 6.27787 28.3709 6.17923 28.455 6.08663C28.5444 5.9883 28.6412 5.89682 28.7446 5.81301C29.1924 5.45016 29.7629 5.23274 30.3843 5.23274C30.6129 5.23274 30.8345 5.2624 31.0458 5.31768C31.0246 5.51904 31.0137 5.7223 31.0137 5.92714C31.0137 6.58452 31.1236 7.22605 31.3402 7.83909H29.0216C29.0216 8.59163 29.6317 9.20171 30.3843 9.20171C30.9148 9.20171 31.3743 8.89828 31.5993 8.45566C31.7964 8.85855 32.038 9.23505 32.323 9.58061C32.3197 9.58419 32.3167 9.58797 32.3135 9.5915C32.2855 9.62239 32.2567 9.65255 32.2272 9.68206C32.1683 9.74096 32.1065 9.79716 32.0421 9.85024C32.01 9.87683 31.9771 9.9026 31.9437 9.9276C31.8768 9.97766 31.8074 10.0246 31.7357 10.0681C31.6641 10.1116 31.5902 10.1518 31.5142 10.1884C31.4737 10.2079 31.4325 10.2263 31.3908 10.2437C31.3544 10.259 31.3176 10.2736 31.2804 10.2873C31.1802 10.3239 31.0768 10.3539 30.9712 10.3782C30.9507 10.383 30.9303 10.3882 30.9095 10.3925C30.8671 10.4012 30.8243 10.4088 30.7812 10.4154C30.6518 10.4352 30.5192 10.4454 30.3843 10.4454C30.2493 10.4454 30.1168 10.4352 29.9874 10.4154C29.9442 10.4088 29.9014 10.4012 29.859 10.3925C29.35 10.2883 28.8951 10.0358 28.5413 9.68206ZM33.8328 4.14983C33.8614 4.10268 33.8912 4.0563 33.922 4.01075C33.9835 3.91957 34.0494 3.83147 34.1192 3.74684C34.1891 3.66222 34.263 3.58102 34.3405 3.50345C34.4955 3.34841 34.6654 3.2081 34.8478 3.08492C34.9389 3.0233 35.0332 2.96598 35.1304 2.91321C35.2275 2.86049 35.3275 2.81227 35.43 2.76891C35.5325 2.72555 35.6376 2.68704 35.7449 2.65365C36.0669 2.55348 36.4092 2.49953 36.7642 2.49953C36.8973 2.49953 37.0286 2.50715 37.1577 2.52188C37.373 2.54653 37.5822 2.59106 37.7834 2.65365C37.8774 2.68285 37.9695 2.71598 38.0598 2.75285C38.2403 2.82664 38.4131 2.9153 38.5767 3.01747C38.6585 3.0685 38.738 3.12291 38.815 3.18048C38.9469 3.27917 39.0715 3.38717 39.1878 3.50345C39.2654 3.58102 39.3392 3.66222 39.4091 3.74684C39.4413 3.78591 39.4727 3.82574 39.5031 3.86624C39.5944 3.98779 39.6776 4.11577 39.7525 4.24898C39.8421 4.40821 39.9202 4.5749 39.9838 4.74861C40.003 4.80112 40.021 4.8542 40.0377 4.90789C40.1378 5.22988 40.1917 5.57217 40.1917 5.92714C40.1917 6.28206 40.1378 6.6244 40.0377 6.94639C40.021 7.00003 40.003 7.05316 39.9838 7.10568C39.967 7.15159 39.9492 7.19705 39.9305 7.24205C39.8556 7.42199 39.7659 7.59421 39.6629 7.75717C39.5856 7.87933 39.5008 7.99633 39.4091 8.10739C39.3392 8.19202 39.2654 8.27327 39.1878 8.35079C39.0715 8.46712 38.9469 8.57511 38.815 8.6738C38.7013 8.75878 38.5819 8.83641 38.4577 8.90677C38.4164 8.93024 38.3745 8.95289 38.3322 8.97477C38.2447 9.01982 38.1552 9.06145 38.0638 9.09923C37.9723 9.13702 37.8788 9.17097 37.7834 9.20063C37.5822 9.26322 37.373 9.30776 37.1577 9.3324C37.0286 9.34713 36.8973 9.35475 36.7642 9.35475C36.4092 9.35475 36.0669 9.3008 35.7449 9.20063C35.6376 9.16724 35.5325 9.12874 35.43 9.08538C35.3454 9.04958 35.2631 9.00975 35.1821 8.96751C35.1649 8.95862 35.1473 8.95028 35.1304 8.94103C35.0332 8.88831 34.9389 8.83093 34.8478 8.76932C34.6654 8.64614 34.4955 8.50588 34.3405 8.35079C34.263 8.27327 34.1891 8.19202 34.1192 8.10739C34.0494 8.02276 33.9835 7.93471 33.922 7.84354C33.8912 7.79793 33.8614 7.7516 33.8328 7.70445C33.7755 7.61021 33.7227 7.51306 33.6746 7.41314C33.458 6.96358 33.3366 6.45955 33.3366 5.92714C33.3366 5.39474 33.458 4.89066 33.6746 4.44114C33.7044 4.37911 33.7368 4.31852 33.7702 4.25864C33.7907 4.22208 33.8111 4.18552 33.8328 4.14983ZM47.6693 5.91968C47.4208 5.33245 47.0658 4.80552 46.6139 4.35355C46.1619 3.90163 45.6349 3.54655 45.0477 3.29814C44.4385 3.04048 43.7927 2.90983 43.1284 2.90983C42.6649 2.90983 42.2108 2.97487 41.7715 3.10082C41.5162 2.64838 41.202 2.23251 40.8304 1.86092C40.303 1.33353 39.6883 0.919239 39.0032 0.629463C38.2928 0.329 37.5394 0.176622 36.7642 0.176622C35.9889 0.176622 35.2355 0.329 34.5251 0.629463C33.8401 0.919239 33.2253 1.33353 32.698 1.86092C32.3253 2.23359 32.0103 2.65068 31.7547 3.10465C31.3112 2.9761 30.8525 2.90983 30.3843 2.90983C29.7198 2.90983 29.0741 3.04048 28.4649 3.29814C27.8776 3.54655 27.3507 3.90163 26.8988 4.35355C26.4469 4.80552 26.0917 5.33245 25.8433 5.91968C25.5857 6.52889 25.4551 7.17466 25.4551 7.83909C25.4551 8.50347 25.5857 9.14929 25.8433 9.75845C26.0917 10.3457 26.4469 10.8726 26.8988 11.3246C27.3507 11.7766 27.8776 12.1316 28.4649 12.38C28.6904 12.4754 28.9209 12.5531 29.1555 12.6135V12.6609V16.8062V19.1292H31.4784H42.0198H44.3427V16.8062V12.6609V12.6173C44.5823 12.5564 44.8176 12.4773 45.0477 12.38C45.6349 12.1316 46.1619 11.7766 46.6139 11.3246C47.0658 10.8726 47.4208 10.3457 47.6693 9.75845C47.9269 9.14929 48.0576 8.50347 48.0576 7.83909C48.0576 7.17466 47.9269 6.52889 47.6693 5.91968Z" fill="#FCFCFD"/>
<path d="M36.7649 7.82471C37.3691 7.82471 37.907 7.54194 38.2546 7.10188C38.5098 6.77866 38.6625 6.37082 38.6625 5.92703H38.5852H34.9288H34.8672C34.8672 6.35911 35.0118 6.75724 35.255 7.07626C35.6017 7.53099 36.1489 7.82471 36.7649 7.82471Z" fill="#FCFCFD"/>
<path d="M3.35879 30.6623H3.27033H2.38964V30.3769L2.99359 30.3772C3.20533 30.3773 3.39576 30.2568 3.49542 30.07C3.80018 29.499 4.29086 29.135 4.924 29.135C5.86302 29.135 6.46589 29.7266 6.5926 30.6623H3.35879ZM8.5518 28.2915C7.68242 27.2832 6.42161 26.7503 4.90579 26.7503C3.39632 26.7503 2.13617 27.2606 1.26148 28.2259C0.436224 29.1367 0 30.3858 0 31.8381C0 33.2835 0.443587 34.5251 1.2828 35.4285C2.18173 36.3962 3.49117 36.9077 5.06958 36.9077C7.6092 36.9077 9.29064 35.6367 9.68268 33.4207L9.70395 33.3007H6.62942L6.60861 33.3755C6.43491 34.0009 5.8596 34.3742 5.06958 34.3742C3.97587 34.3742 3.3751 33.8255 3.18641 32.65H9.78142L9.79262 32.5604C9.81164 32.4085 9.81164 32.2056 9.81164 32.1292C9.81164 30.5743 9.37598 29.2472 8.5518 28.2915Z" fill="#FCFCFD"/>
<path d="M51.1928 30.6623H51.1044H50.2237V30.3769L50.8276 30.3772C51.0393 30.3773 51.2298 30.2568 51.3295 30.07C51.6342 29.499 52.1249 29.135 52.758 29.135C53.6971 29.135 54.2999 29.7266 54.4266 30.6623H51.1928ZM56.3858 28.2915C55.5165 27.2832 54.2556 26.7503 52.7398 26.7503C51.2304 26.7503 49.9702 27.2606 49.0955 28.2259C48.2703 29.1367 47.834 30.3858 47.834 31.8381C47.834 33.2835 48.2776 34.5251 49.1168 35.4285C50.0157 36.3962 51.3252 36.9077 52.9036 36.9077C55.4432 36.9077 57.1247 35.6367 57.5167 33.4207L57.538 33.3007H54.4635L54.4426 33.3755C54.2689 34.0009 53.6936 34.3742 52.9036 34.3742C51.8099 34.3742 51.2091 33.8255 51.0205 32.65H57.6155L57.6267 32.5604C57.6456 32.4085 57.6456 32.2056 57.6456 32.1292C57.6456 30.5743 57.21 29.2472 56.3858 28.2915Z" fill="#FCFCFD"/>
<path d="M14.5841 34.5561C13.9626 34.5561 13.5765 34.2467 13.5765 33.7487C13.5765 33.2552 13.8893 32.9648 14.5058 32.8858C15.2455 32.7933 16.0641 32.6674 16.5923 32.344C16.5787 33.2134 16.0289 34.5561 14.5841 34.5561ZM15.3301 26.7504C13.9874 26.7504 12.833 27.1212 11.9918 27.8226C11.2039 28.4795 10.77 29.3693 10.77 30.328V30.4302H13.813V30.328C13.813 29.5304 14.2809 29.1748 15.3301 29.1748C15.8016 29.1748 16.5925 29.2938 16.5925 30.0914C16.5925 30.643 15.9824 30.7775 13.884 30.9539C12.7855 31.0478 11.9206 31.3277 11.3133 31.7861C10.6751 32.2678 10.3516 32.922 10.3516 33.7305C10.3516 35.6309 11.7015 36.9077 13.7108 36.9077C14.9448 36.9077 15.9131 36.4098 16.6653 35.3869L17.1387 34.7432L17.3687 34.9123L16.947 35.4855C16.764 35.7344 16.6653 36.0353 16.6653 36.3443V36.6348H19.7993V30.6919C19.7993 28.1502 18.2121 26.7504 15.3301 26.7504Z" fill="#FCFCFD"/>
<path d="M33.7915 33.1962C33.6157 33.8996 33.0406 34.3196 32.2532 34.3196C31.0319 34.3196 30.4631 33.5311 30.4631 31.8381C30.4631 30.1917 31.0625 29.2475 32.1076 29.2475C32.9024 29.2475 33.456 29.7544 33.6266 30.6384L33.6426 30.7213H36.822L36.7924 30.5956C36.5201 29.4407 35.9676 28.4805 35.1945 27.8189C34.3661 27.1098 33.3214 26.7503 32.0894 26.7503C30.58 26.7503 29.3198 27.2606 28.4451 28.2259C27.6198 29.1367 27.1836 30.3858 27.1836 31.8381C27.1836 33.2835 27.6272 34.5251 28.4664 35.4285C29.3653 36.3962 30.6748 36.9077 32.2532 36.9077C33.4269 36.9077 34.4616 36.6043 35.2453 36.0305C36.1171 35.3922 36.6625 34.4526 36.8664 33.2379L36.8865 33.1187H33.8109L33.7915 33.1962Z" fill="#FCFCFD"/>
<path d="M46.2789 27.7403C45.711 27.0955 44.8487 26.7686 43.7162 26.7686C42.3987 26.7686 41.4476 27.3138 40.8162 28.4335L40.436 29.1364L40.185 29.0006L40.6067 28.2208C40.7442 27.9666 40.8162 27.6823 40.8162 27.3933V23.4388H37.6094V36.6348H40.8162V31.9109C40.8162 30.1842 41.7335 29.4113 42.6426 29.4113C43.6935 29.4113 43.8504 30.339 43.8504 30.892V36.6348H47.0572V30.2188C47.0572 29.1606 46.7954 28.3267 46.2789 27.7403Z" fill="#FCFCFD"/>
<path d="M64.2323 25.9906V23.4388H61.7101C60.9365 23.4388 60.2764 23.6417 59.8013 24.0256C59.2928 24.4364 59.0241 25.0364 59.0241 25.7609V27.0233H57.623V29.3567H59.0241V36.6348H62.2308V30.2219C62.2308 29.9017 61.9712 29.6421 61.6511 29.6421H61.2617V29.3567H62.2308H64.2323V27.0233H62.2308V25.9906H64.2323Z" fill="#FCFCFD"/>
<path d="M69.9893 30.6638L68.6068 30.4273C67.5452 30.2427 67.5452 29.8686 67.5452 29.7457C67.5452 29.4441 67.7044 28.9382 68.7712 28.9382C69.5642 28.9382 70.125 29.3928 70.2349 30.1248L70.2479 30.2119H73.2263L73.222 30.1055C73.1846 29.1795 72.7353 28.3341 71.957 27.725C71.142 27.0874 70.0404 26.7503 68.7712 26.7503C67.5204 26.7503 66.4636 27.0403 65.7153 27.5889C64.9693 28.1358 64.5749 28.9005 64.5749 29.8002C64.5749 31.4996 65.5827 32.4453 67.8427 32.8666L69.4076 33.1577C70.4157 33.3445 70.4157 33.7308 70.4157 33.8578C70.4157 34.193 70.1619 34.5925 68.9531 34.5925C67.9549 34.5925 67.3554 34.1435 67.3084 33.3604L67.3027 33.2643H64.2656V33.3665C64.2656 34.3946 64.6969 35.2742 65.5127 35.9103C66.3495 36.5629 67.5392 36.9077 68.9531 36.9077C70.2889 36.9077 71.4313 36.6057 72.2569 36.0343C73.067 35.4736 73.5132 34.6748 73.5132 33.785C73.5132 32.0356 72.4263 31.073 69.9893 30.6638Z" fill="#FCFCFD"/>
<path d="M26.769 29.3567V27.0233H24.8039V24.203H21.6336V27.0233H19.9414V29.3567H21.5972H22.5663V29.6421H22.1769C21.8567 29.6421 21.5972 29.9017 21.5972 30.2219V34.5856C21.5972 35.7173 22.5146 36.6348 23.6463 36.6348H26.769V34.0831H24.8039V29.3567H26.769Z" fill="#FCFCFD"/>
</svg>
