<svg width="24" height="24" viewBox="0 0 24 24" fill="none" xmlns="http://www.w3.org/2000/svg">
<path fill-rule="evenodd" clip-rule="evenodd" d="M4 12C4 7.58172 7.58172 4 12 4C16.4183 4 20 7.58172 20 12C20 16.4183 16.4183 20 12 20C7.58172 20 4 16.4183 4 12ZM12 2C6.47715 2 2 6.47715 2 12C2 17.5228 6.47715 22 12 22C17.5228 22 22 17.5228 22 12C22 6.47715 17.5228 2 12 2ZM8.97193 16.2352C8.84204 16.772 8.30159 17.1018 7.76479 16.972C7.228 16.8421 6.89814 16.3016 7.02803 15.7648C7.29094 14.6783 7.93578 13.7209 8.84104 13.042C9.74525 12.3638 10.8592 12 12 12C13.1407 12 14.2547 12.3638 15.1589 13.042C16.0642 13.7209 16.709 14.6783 16.9719 15.7648C17.1018 16.3016 16.772 16.8421 16.2352 16.972C15.6984 17.1018 15.1579 16.772 15.028 16.2352C14.8786 15.6177 14.5072 15.0532 13.9589 14.642C13.4096 14.23 12.719 14 12 14C11.281 14 10.5904 14.23 10.041 14.642C9.49276 15.0532 9.12136 15.6177 8.97193 16.2352ZM10.1786 10.9837C9.63517 11.0823 9.11471 10.7217 9.01609 10.1783C9.01171 10.1542 9.00618 10.1324 9.00002 10.1128C8.99386 10.1324 8.98833 10.1542 8.98395 10.1783C8.88533 10.7217 8.36487 11.0823 7.82146 10.9837C7.27805 10.8851 6.91747 10.3646 7.01609 9.82119C7.09931 9.36262 7.31017 8.91631 7.65318 8.5733C8.00074 8.22574 8.47319 7.99976 9.00002 7.99976C9.52686 7.99976 9.9993 8.22574 10.3469 8.5733C10.6899 8.91631 10.9007 9.36262 10.9839 9.82119C11.0826 10.3646 10.722 10.8851 10.1786 10.9837ZM15.0161 10.1783C15.1147 10.7217 15.6352 11.0823 16.1786 10.9837C16.722 10.8851 17.0826 10.3646 16.9839 9.82119C16.9007 9.36262 16.6899 8.91631 16.3469 8.5733C15.9993 8.22574 15.5269 7.99976 15 7.99976C14.4732 7.99976 14.0007 8.22574 13.6532 8.5733C13.3102 8.91631 13.0993 9.36262 13.0161 9.82119C12.9175 10.3646 13.278 10.8851 13.8215 10.9837C14.3649 11.0823 14.8853 10.7217 14.9839 10.1783C14.9883 10.1542 14.9939 10.1324 15 10.1128C15.0062 10.1324 15.0117 10.1542 15.0161 10.1783Z" fill="#353E50"/>
</svg>
