<svg width="24" height="24" viewBox="0 0 24 24" fill="none" xmlns="http://www.w3.org/2000/svg">
<path d="M5 9H7V7C7 6.44772 7.44772 6 8 6C8.55228 6 9 6.44772 9 7V12.0004C9.58141 12.4371 10.2611 12.75 11 12.9V4C11 3.44772 11.4477 3 12 3C12.5523 3 13 3.44772 13 4V12.9C13.7389 12.75 14.4186 12.4371 15 12.0004V6C15 5.44772 15.4477 5 16 5C16.5523 5 17 5.44772 17 6V9H19V6C19 4.34315 17.6569 3 16 3C15.6098 3 15.2369 3.07452 14.8949 3.21009C14.5482 1.93647 13.3835 1 12 1C10.3431 1 9 2.34315 9 4V4.17071C8.68722 4.06015 8.35064 4 8 4C6.34315 4 5 5.34315 5 7V9Z" fill="#353E50"/>
<path fill-rule="evenodd" clip-rule="evenodd" d="M18.7061 10.0135C17.8412 12.898 15.1661 15 12 15C8.83392 15 6.15877 12.898 5.29391 10.0135C4.76866 10.1004 4.39102 10.5948 4.46911 11.1414L5.61197 19.1414C5.68235 19.6341 6.10427 20 6.60192 20H17.3981C17.8958 20 18.3177 19.6341 18.3881 19.1414L19.531 11.1414C19.609 10.5948 19.2314 10.1004 18.7061 10.0135ZM18 8C17.4477 8 17.0104 8.45223 16.9013 8.99362C16.4405 11.279 14.4212 13 12 13C9.57879 13 7.55953 11.279 7.09873 8.99362C6.98957 8.45223 6.55228 8 6 8H5.45906C5.3027 8 5.14945 8.01186 5.00008 8.03468C3.40538 8.27836 2.25314 9.77175 2.48921 11.4243L3.63207 19.4243C3.8432 20.9022 5.10897 22 6.60192 22H17.3981C18.8911 22 20.1569 20.9022 20.368 19.4243L21.5109 11.4243C21.7469 9.77173 20.5947 8.27832 18.9999 8.03467C18.8506 8.01186 18.6973 8 18.541 8H18Z" fill="#353E50"/>
</svg>
