<svg width="24" height="24" viewBox="0 0 24 24" xmlns="http://www.w3.org/2000/svg">
<mask id="path-1-inside-1_545_27220">
<path fill-rule="evenodd" clip-rule="evenodd" d="M7.5 3C9.24649 3 10.8321 3.6888 12 4.80957C13.1679 3.6888 14.7535 3 16.5 3C20.0899 3 23 5.91015 23 9.5C23 15.8682 16.0297 19.385 13.1862 20.5547C12.4204 20.8697 11.5796 20.8697 10.8138 20.5547C7.97034 19.385 1 15.8683 1 9.5C1 5.91015 3.91015 3 7.5 3ZM11.3076 6.91706L10.6152 6.2526C9.80477 5.47487 8.70994 5 7.5 5C5.01472 5 3 7.01472 3 9.5C3 11.8826 4.28979 13.8501 6.15176 15.4666C8.01532 17.0844 10.2434 18.1574 11.5746 18.7051C11.853 18.8196 12.147 18.8196 12.4254 18.7051C13.7566 18.1574 15.9847 17.0844 17.8482 15.4666C19.7102 13.85 21 11.8826 21 9.5C21 7.01472 18.9853 5 16.5 5C15.2901 5 14.1952 5.47487 13.3848 6.2526L12.6924 6.91706C12.3055 7.28838 11.6945 7.28838 11.3076 6.91706Z"/>
</mask>
<path fill-rule="evenodd" clip-rule="evenodd" d="M7.5 3C9.24649 3 10.8321 3.6888 12 4.80957C13.1679 3.6888 14.7535 3 16.5 3C20.0899 3 23 5.91015 23 9.5C23 15.8682 16.0297 19.385 13.1862 20.5547C12.4204 20.8697 11.5796 20.8697 10.8138 20.5547C7.97034 19.385 1 15.8683 1 9.5C1 5.91015 3.91015 3 7.5 3ZM11.3076 6.91706L10.6152 6.2526C9.80477 5.47487 8.70994 5 7.5 5C5.01472 5 3 7.01472 3 9.5C3 11.8826 4.28979 13.8501 6.15176 15.4666C8.01532 17.0844 10.2434 18.1574 11.5746 18.7051C11.853 18.8196 12.147 18.8196 12.4254 18.7051C13.7566 18.1574 15.9847 17.0844 17.8482 15.4666C19.7102 13.85 21 11.8826 21 9.5C21 7.01472 18.9853 5 16.5 5C15.2901 5 14.1952 5.47487 13.3848 6.2526L12.6924 6.91706C12.3055 7.28838 11.6945 7.28838 11.3076 6.91706Z"/>
<path d="M10.6152 6.2526L12 4.80957L12 4.80957L10.6152 6.2526ZM6.15176 15.4666L4.8406 16.9768H4.8406L6.15176 15.4666ZM11.5746 18.7051L12.3355 16.8554L12.3355 16.8554L11.5746 18.7051ZM12.4254 18.7051L13.1862 20.5547L13.1862 20.5547L12.4254 18.7051ZM17.8482 15.4666L16.5371 13.9563H16.5371L17.8482 15.4666ZM13.3848 6.2526L14.7696 7.69563L13.3848 6.2526ZM12 4.80957L10.6152 6.2526L12 7.58152L13.3848 6.2526L12 4.80957ZM10.8138 20.5547L10.0529 22.4043H10.0529L10.8138 20.5547ZM13.1862 20.5547L13.9471 22.4043H13.9471L13.1862 20.5547ZM11.3076 6.91706L9.9228 8.36009L9.9228 8.36009L11.3076 6.91706ZM12.6924 6.91706L11.3076 5.47403L11.3076 5.47403L12.6924 6.91706ZM9.2304 7.69563L9.9228 8.36009L12.6924 5.47403L12 4.80957L9.2304 7.69563ZM7.5 7C8.1739 7 8.77783 7.26131 9.2304 7.69563L12 4.80957C10.8317 3.68843 9.24597 3 7.5 3V7ZM5 9.5C5 8.11929 6.11929 7 7.5 7V3C3.91015 3 1 5.91015 1 9.5H5ZM7.46291 13.9563C5.8398 12.5472 5 11.0837 5 9.5H1C1 12.6815 2.73977 15.1529 4.8406 16.9768L7.46291 13.9563ZM12.3355 16.8554C11.0945 16.3449 9.0919 15.3705 7.46291 13.9563L4.8406 16.9768C6.93874 18.7983 9.39231 19.9699 10.8138 20.5547L12.3355 16.8554ZM11.6645 16.8554C11.7575 16.8172 11.8723 16.7909 12 16.7909C12.1277 16.7909 12.2425 16.8172 12.3355 16.8554L10.8138 20.5547C11.5796 20.8697 12.4204 20.8697 13.1862 20.5547L11.6645 16.8554ZM16.5371 13.9563C14.9081 15.3705 12.9055 16.3449 11.6645 16.8554L13.1862 20.5547C14.6077 19.9699 17.0613 18.7983 19.1594 16.9768L16.5371 13.9563ZM19 9.5C19 11.0837 18.1602 12.5472 16.5371 13.9563L19.1594 16.9768C21.2602 15.1529 23 12.6815 23 9.5H19ZM16.5 7C17.8807 7 19 8.11929 19 9.5H23C23 5.91015 20.0899 3 16.5 3V7ZM14.7696 7.69563C15.2222 7.26131 15.8261 7 16.5 7V3C14.754 3 13.1683 3.68843 12 4.80957L14.7696 7.69563ZM14.0772 8.36009L14.7696 7.69563L12 4.80957L11.3076 5.47403L14.0772 8.36009ZM7.5 5C8.70994 5 9.80477 5.47487 10.6152 6.2526L13.3848 3.36655C11.8594 1.90274 9.78305 1 7.5 1V5ZM3 9.5C3 7.01472 5.01472 5 7.5 5V1C2.80558 1 -1 4.80558 -1 9.5H3ZM11.5746 18.7051C10.2434 18.1574 8.01532 17.0844 6.15176 15.4666C4.28979 13.8501 3 11.8826 3 9.5H-1C-1 13.4856 1.19539 16.4607 3.52945 18.4871C5.86192 20.512 8.54073 21.7823 10.0529 22.4043L11.5746 18.7051ZM12.4254 18.7051C12.147 18.8196 11.853 18.8196 11.5746 18.7051L10.0529 22.4043C11.3061 22.9198 12.6939 22.9198 13.9471 22.4043L12.4254 18.7051ZM21 9.5C21 11.8826 19.7102 13.85 17.8482 15.4666C15.9847 17.0844 13.7566 18.1574 12.4254 18.7051L13.9471 22.4043C15.4593 21.7822 18.1381 20.512 20.4706 18.4871C22.8046 16.4607 25 13.4856 25 9.5H21ZM16.5 5C18.9853 5 21 7.01472 21 9.5H25C25 4.80558 21.1944 1 16.5 1V5ZM13.3848 6.2526C14.1952 5.47487 15.2901 5 16.5 5V1C14.217 1 12.1406 1.90274 10.6152 3.36655L13.3848 6.2526ZM9.9228 8.36009C11.0836 9.47403 12.9164 9.47404 14.0772 8.36009L11.3076 5.47403C11.6945 5.10272 12.3055 5.10272 12.6924 5.47403L9.9228 8.36009Z"  mask="url(#path-1-inside-1_545_27220)"/>
</svg>
