<svg width="24" height="24" viewBox="0 0 24 24"  xmlns="http://www.w3.org/2000/svg">
<path fill-rule="evenodd" clip-rule="evenodd" d="M7 15.9012V18.9949L12.0622 16.0036L12.5913 15.9949C14.6952 15.9605 16.5886 15.7487 18.0044 15.5332C18.8979 15.3973 19.5187 14.7737 19.6536 13.9907C19.8406 12.9047 20 11.5287 20 9.99982C20 8.4709 19.8406 7.09494 19.6536 6.00888C19.5187 5.2259 18.8979 4.60233 18.0044 4.46638C16.4559 4.23078 14.3383 3.99982 12 3.99982C9.66167 3.99982 7.54408 4.23078 5.99562 4.46638C5.10214 4.60233 4.4813 5.2259 4.34643 6.00888C4.15936 7.09494 4 8.4709 4 9.99982C4 11.5287 4.15936 12.9047 4.34643 13.9908C4.46355 14.6707 4.93854 15.2157 5.63108 15.4459L7 15.9012ZM2.37546 5.66938C2.66565 3.98469 4.00472 2.74629 5.69477 2.48914C7.31411 2.24275 9.53559 1.99982 12 1.99982C14.4644 1.99982 16.6859 2.24275 18.3052 2.48914C19.9953 2.74629 21.3344 3.98469 21.6245 5.66938C21.8268 6.84353 22 8.33507 22 9.99982C22 11.6646 21.8268 13.1561 21.6245 14.3302C21.3344 16.0149 19.9953 17.2533 18.3052 17.5105C16.8238 17.7359 14.8384 17.9584 12.6241 17.9947L6.50873 21.6083C5.84211 22.0022 5 21.5217 5 20.7474V17.3438C3.64656 16.8937 2.62456 15.7764 2.37546 14.3302C2.17321 13.1561 2 11.6646 2 9.99982C2 8.33507 2.17321 6.84353 2.37546 5.66938Z" />
<path fill-rule="evenodd" clip-rule="evenodd" d="M7 7.00018C6.44772 7.00018 6 7.4479 6 8.00018C6 8.55247 6.44772 9.00018 7 9.00018H17C17.5523 9.00018 18 8.55247 18 8.00018C18 7.4479 17.5523 7.00018 17 7.00018H7ZM7 11.0002C6.44772 11.0002 6 11.4479 6 12.0002C6 12.5525 6.44772 13.0002 7 13.0002H11C11.5523 13.0002 12 12.5525 12 12.0002C12 11.4479 11.5523 11.0002 11 11.0002H7Z" />
</svg>
