<svg width="24" height="24" viewBox="0 0 24 24"  xmlns="http://www.w3.org/2000/svg">
<path fill-rule="evenodd" clip-rule="evenodd" d="M14 5C17.9477 5 21 8.05228 21 12C21 15.9477 17.9477 19 14 19C10.0523 19 7 15.9477 7 12C7 11.4477 6.55228 11 6 11C5.44772 11 5 11.4477 5 12C5 17.0523 8.94771 21 14 21C19.0523 21 23 17.0523 23 12C23 6.94772 19.0523 3 14 3H4C3.44772 3 3 3.44772 3 4C3 4.55228 3.44772 5 4 5H14Z" />
<path fill-rule="evenodd" clip-rule="evenodd" d="M1.29289 3.29289C0.902369 3.68342 0.902369 4.31658 1.29289 4.70711L3.29289 6.70711C3.68342 7.09763 4.31658 7.09763 4.70711 6.70711C5.09763 6.31658 5.09763 5.68342 4.70711 5.29289L3.41421 4L4.70711 2.70711C5.09763 2.31658 5.09763 1.68342 4.70711 1.29289C4.31658 0.902369 3.68342 0.902369 3.29289 1.29289L1.29289 3.29289Z" />
<path d="M11 8C10.4477 8 10 8.44772 10 9V15C10 15.5523 10.4477 16 11 16C11.5523 16 12 15.5523 12 15V9C12 8.44772 11.5523 8 11 8Z" />
<path d="M14.5 8C13.6716 8 13 8.67157 13 9.5V11.5C13 12.3284 13.6716 13 14.5 13H16V14H14C13.4477 14 13 14.4477 13 15C13 15.5523 13.4477 16 14 16H16.5C17.3284 16 18 15.3284 18 14.5V12.5C18 11.6716 17.3284 11 16.5 11H15V10H17C17.5523 10 18 9.55228 18 9C18 8.44772 17.5523 8 17 8H14.5Z" />
</svg>
