<svg width="20" height="20" viewBox="0 0 20 20" fill="none" xmlns="http://www.w3.org/2000/svg">
<path fill-rule="evenodd" clip-rule="evenodd" d="M1.91058 11.0771C2.23602 10.7516 2.76366 10.7516 3.08909 11.0771L5.83317 13.8212C6.15861 14.1466 6.15861 14.6742 5.83317 14.9997C5.50773 15.3251 4.9801 15.3251 4.65466 14.9997L1.91058 12.2556C1.58514 11.9302 1.58514 11.4025 1.91058 11.0771Z" fill="#566481"/>
<path d="M18.1124 4.73158C18.4245 4.39339 18.4035 3.86618 18.0653 3.55401C17.7271 3.24184 17.1999 3.26293 16.8877 3.60111L7.45293 13.8221C7.14076 14.1603 7.16185 14.6875 7.50004 14.9997C7.83822 15.3118 8.36544 15.2908 8.67761 14.9526L14.43 8.72087C14.5905 8.54697 14.8634 8.54152 15.0308 8.70885L16.0775 9.7556C16.4029 10.081 16.9306 10.081 17.256 9.7556C17.5814 9.43016 17.5814 8.90252 17.256 8.57709L16.1386 7.45963C15.9804 7.3015 15.9753 7.04672 16.127 6.88239L18.1124 4.73158Z" fill="#566481"/>
<path fill-rule="evenodd" clip-rule="evenodd" d="M4.89885 10.7325L3.43438 9.26804C2.45807 8.29173 2.45807 6.70882 3.43438 5.73251L6.56552 2.60137C7.54183 1.62506 9.12474 1.62506 10.101 2.60137L11.5655 4.06584C12.5418 5.04215 12.5418 6.62506 11.5655 7.60138L8.43438 10.7325C7.45807 11.7088 5.87516 11.7088 4.89885 10.7325ZM4.61289 8.08953L6.07736 9.554C6.4028 9.87944 6.93043 9.87943 7.25587 9.554L10.387 6.42286C10.7124 6.09743 10.7124 5.56979 10.387 5.24435L8.92253 3.77989C8.5971 3.45445 8.06946 3.45445 7.74403 3.77988L4.61289 6.91102C4.28746 7.23645 4.28746 7.76409 4.61289 8.08953Z" fill="#566481"/>
<path fill-rule="evenodd" clip-rule="evenodd" d="M6.6665 16.6663C7.12674 16.6663 7.49984 16.2932 7.49984 15.833C7.49984 15.3728 7.12674 14.9997 6.6665 14.9997C6.20627 14.9997 5.83317 15.3728 5.83317 15.833C5.83317 16.2932 6.20627 16.6663 6.6665 16.6663ZM6.6665 18.333C8.04722 18.333 9.1665 17.2137 9.1665 15.833C9.1665 14.4523 8.04722 13.333 6.6665 13.333C5.28579 13.333 4.1665 14.4523 4.1665 15.833C4.1665 17.2137 5.28579 18.333 6.6665 18.333Z" fill="#566481"/>
</svg>
