<svg width="16" height="16" viewBox="0 0 16 16" fill="none" xmlns="http://www.w3.org/2000/svg">
<path fill-rule="evenodd" clip-rule="evenodd" d="M8 8.66671C5.42267 8.66671 3.33333 10.756 3.33333 13.3334V14.6667C3.33333 15.0349 3.03486 15.3334 2.66667 15.3334C2.29848 15.3334 2 15.0349 2 14.6667V13.3334C2 10.0197 4.68629 7.33337 8 7.33337C11.3137 7.33337 14 10.0197 14 13.3334V14.6667C14 15.0349 13.7015 15.3334 13.3333 15.3334C12.9651 15.3334 12.6667 15.0349 12.6667 14.6667V13.3334C12.6667 10.756 10.5773 8.66671 8 8.66671Z" fill="#777E91"/>
<path fill-rule="evenodd" clip-rule="evenodd" d="M8 7.33329C9.47276 7.33329 10.6667 6.13939 10.6667 4.66663C10.6667 3.19387 9.47276 1.99996 8 1.99996C6.52724 1.99996 5.33333 3.19387 5.33333 4.66663C5.33333 6.13939 6.52724 7.33329 8 7.33329ZM8 8.66663C10.2091 8.66663 12 6.87576 12 4.66663C12 2.45749 10.2091 0.666626 8 0.666626C5.79086 0.666626 4 2.45749 4 4.66663C4 6.87576 5.79086 8.66663 8 8.66663Z" fill="#777E91"/>
</svg>
