<svg width="24" height="24" viewBox="0 0 24 24"  xmlns="http://www.w3.org/2000/svg">
<path fill-rule="evenodd" clip-rule="evenodd" d="M6.41906 10C5.72753 10 5.24473 10.6851 5.47732 11.3363L9.32738 22.1165C9.73078 23.246 10.8007 24 12.0001 24C13.1994 24 14.2693 23.246 14.6727 22.1165L18.5228 11.3363C18.7554 10.6851 18.2726 10 17.581 10H6.41906ZM7.83806 12L11.2109 21.4438C11.33 21.7774 11.6459 22 12.0001 22C12.3542 22 12.6701 21.7774 12.7892 21.4438L16.162 12H7.83806Z" />
<path fill-rule="evenodd" clip-rule="evenodd" d="M7.89897 6.66416L6.87446 7.13572C6.35439 7.37511 6 7.89826 6 8.5C6 9.32843 6.67157 10 7.5 10H16.5C17.3284 10 18 9.32843 18 8.5C18 7.89826 17.6456 7.37511 17.1255 7.13573L16.101 6.66417L15.9744 5.54348C15.7492 3.55023 14.0542 2 12 2C9.94575 2 8.25079 3.55023 8.02558 5.54348L7.89897 6.66416ZM17.9618 5.31894C17.6236 2.32591 15.0834 0 12 0C8.91657 0 6.37639 2.32591 6.03823 5.31894C4.83518 5.87268 4 7.08881 4 8.5C4 10.433 5.567 12 7.5 12H16.5C18.433 12 20 10.433 20 8.5C20 7.08881 19.1648 5.87268 17.9618 5.31894Z" />
</svg>
