<svg width="24" height="24" viewBox="0 0 24 24"  xmlns="http://www.w3.org/2000/svg">
<path fill-rule="evenodd" clip-rule="evenodd" d="M12 7.00006C12.5523 7.00006 13 7.44778 13 8.00006V11.5858L14.7071 13.293C15.0976 13.6835 15.0976 14.3166 14.7071 14.7072C14.3166 15.0977 13.6834 15.0977 13.2929 14.7072L11.2929 12.7072C11.1054 12.5196 11 12.2653 11 12.0001V8.00006C11 7.44778 11.4477 7.00006 12 7.00006Z" />
<path fill-rule="evenodd" clip-rule="evenodd" d="M17.2646 5.88443C15.7836 4.59201 13.8787 3.89006 11.9132 3.91251C9.94766 3.93496 8.05922 4.68023 6.60814 6.00614C5.15706 7.33205 4.2449 9.14578 4.04571 11.1013C3.98974 11.6507 3.49896 12.0508 2.94952 11.9948C2.40008 11.9388 2.00004 11.4481 2.05601 10.8986C2.305 8.45423 3.44519 6.18707 5.25904 4.52968C7.0729 2.8723 9.43344 1.9407 11.8903 1.91264C14.3472 1.88458 16.7284 2.76201 18.5796 4.37754C20.4309 5.99306 21.6225 8.23358 21.9273 10.6716C22.2321 13.1097 21.6286 15.5746 20.232 17.5961C18.8353 19.6176 16.7434 21.0542 14.3552 21.6318C11.967 22.2093 9.4498 21.8875 7.28378 20.7276C6.01108 20.046 4.91198 19.1032 4.05086 17.9733V19.9999C4.05086 20.5522 3.60314 20.9999 3.05086 20.9999C2.49857 20.9999 2.05086 20.5522 2.05086 19.9999V14.9999C2.05086 14.4477 2.49857 13.9999 3.05086 13.9999H3.52756C3.54307 13.9996 3.55855 13.9996 3.57399 13.9999H8.05086C8.60314 13.9999 9.05086 14.4477 9.05086 14.9999C9.05086 15.5522 8.60314 15.9999 8.05086 15.9999H5.12783C5.86735 17.2439 6.9358 18.2725 8.22793 18.9645C9.96074 19.8924 11.9745 20.1499 13.8851 19.6878C15.7956 19.2258 17.4692 18.0765 18.5865 16.4593C19.7038 14.8421 20.1866 12.8702 19.9427 10.9197C19.6989 8.96927 18.7456 7.17684 17.2646 5.88443Z" />
</svg>
