<svg width="20" height="20" viewBox="0 0 20 20"  xmlns="http://www.w3.org/2000/svg">
<path fill-rule="evenodd" clip-rule="evenodd" d="M15.0002 3.75033C15.0002 3.52021 14.8136 3.33366 14.5835 3.33366H5.41683C5.18671 3.33366 5.00016 3.52021 5.00016 3.75033V15.0235C5.00016 15.3054 5.29673 15.4886 5.5488 15.3626C6.25261 15.0107 7.08104 15.0107 7.78486 15.3626L9.62748 16.2839C9.86209 16.4012 10.1382 16.4012 10.3728 16.2839L12.2155 15.3626C12.9193 15.0107 13.7477 15.0107 14.4515 15.3626C14.7036 15.4886 15.0002 15.3054 15.0002 15.0235V3.75033ZM16.6668 17.6595C16.6668 17.9692 16.3409 18.1707 16.0638 18.0322L13.7062 16.8533C13.4716 16.736 13.1954 16.736 12.9608 16.8533L11.1182 17.7746C10.4144 18.1266 9.58595 18.1266 8.88213 17.7746L7.03951 16.8533C6.8049 16.736 6.52876 16.736 6.29415 16.8533L3.9365 18.0322C3.65946 18.1707 3.3335 17.9692 3.3335 17.6595V1.66699H16.6668V17.6595Z" />
<path d="M7.49984 5C7.0396 5 6.6665 5.3731 6.6665 5.83333C6.6665 6.29357 7.0396 6.66667 7.49984 6.66667H9.1665C9.62674 6.66667 9.99984 6.29357 9.99984 5.83333C9.99984 5.3731 9.62674 5 9.1665 5H7.49984Z" />
<path d="M12.4998 5C12.0396 5 11.6665 5.3731 11.6665 5.83333C11.6665 6.29357 12.0396 6.66667 12.4998 6.66667C12.9601 6.66667 13.3332 6.29357 13.3332 5.83333C13.3332 5.3731 12.9601 5 12.4998 5Z" />
<path d="M6.6665 9.16667C6.6665 8.70643 7.0396 8.33333 7.49984 8.33333H9.1665C9.62674 8.33333 9.99984 8.70643 9.99984 9.16667C9.99984 9.6269 9.62674 10 9.1665 10H7.49984C7.0396 10 6.6665 9.6269 6.6665 9.16667Z" />
<path d="M12.4998 8.33333C12.0396 8.33333 11.6665 8.70643 11.6665 9.16667C11.6665 9.6269 12.0396 10 12.4998 10C12.9601 10 13.3332 9.6269 13.3332 9.16667C13.3332 8.70643 12.9601 8.33333 12.4998 8.33333Z" />
<path d="M6.6665 12.5C6.6665 12.0398 7.0396 11.6667 7.49984 11.6667H9.1665C9.62674 11.6667 9.99984 12.0398 9.99984 12.5C9.99984 12.9602 9.62674 13.3333 9.1665 13.3333H7.49984C7.0396 13.3333 6.6665 12.9602 6.6665 12.5Z" />
<path d="M12.4998 11.6667C12.0396 11.6667 11.6665 12.0398 11.6665 12.5C11.6665 12.9602 12.0396 13.3333 12.4998 13.3333C12.9601 13.3333 13.3332 12.9602 13.3332 12.5C13.3332 12.0398 12.9601 11.6667 12.4998 11.6667Z" />
<path d="M1.6665 2.50033C1.6665 2.04009 2.0396 1.66699 2.49984 1.66699H17.4998C17.9601 1.66699 18.3332 2.04009 18.3332 2.50033C18.3332 2.96056 17.9601 3.33366 17.4998 3.33366H2.49984C2.0396 3.33366 1.6665 2.96056 1.6665 2.50033Z" />
</svg>
