<svg width="24" height="24" viewBox="0 0 24 24"  xmlns="http://www.w3.org/2000/svg">
<path fill-rule="evenodd" clip-rule="evenodd" d="M2 5C2 3.34315 3.34315 2 5 2H15C16.6569 2 18 3.34315 18 5L19 5C20.6569 5 22 6.34315 22 8V13C22 14.6569 20.6569 16 19 16H18V17C18 19.7614 15.7614 22 13 22H7C4.23858 22 2 19.7614 2 17V5ZM5 4H15C15.5523 4 16 4.44772 16 5V17C16 18.6569 14.6569 20 13 20H7C5.34315 20 4 18.6569 4 17V5C4 4.44772 4.44771 4 5 4ZM18 14H19C19.5523 14 20 13.5523 20 13V8C20 7.44772 19.5523 7 19 7H18V14Z" />
<path d="M10 2H8V6C7.44772 6 7 6.44772 7 7V9C7 9.55228 7.44772 10 8 10H10C10.5523 10 11 9.55228 11 9V7C11 6.44772 10.5523 6 10 6V2Z" />
</svg>
