<svg width="24" height="24" viewBox="0 0 24 24"  xmlns="http://www.w3.org/2000/svg">
<path fill-rule="evenodd" clip-rule="evenodd" d="M4.42823 19.5721C6.29534 19.0575 8.69079 18.099 10.8788 16.7975C12.4323 15.8734 13.7671 14.8419 14.6905 13.7835C15.6216 12.7162 16.0001 11.7819 16.0001 11.0002C16.0001 9.95468 15.6603 9.23884 15.2108 8.7894C14.7614 8.33996 14.0456 8.00018 13.0001 8.00018C12.2183 8.00018 11.2841 8.37862 10.2168 9.30977C9.15839 10.2332 8.12694 11.568 7.20285 13.1215C5.90133 15.3095 4.94282 17.705 4.42823 19.5721ZM2.02199 21.5046C2.3859 17.0956 7.23068 6.00018 13.0001 6.00018C16.0001 6.00018 18.0001 8.00018 18.0001 11.0002C18.0001 16.7696 6.90477 21.6145 2.4956 21.9783C2.2204 22.001 1.99928 21.7798 2.02199 21.5046Z" />
<path d="M16 2C16.5523 2 17 2.44772 17 3V5.58579L19.2929 3.29289C19.6834 2.90237 20.3166 2.90237 20.7071 3.29289C21.0976 3.68342 21.0976 4.31658 20.7071 4.70711L18.4142 7H21C21.5523 7 22 7.44772 22 8C22 8.55228 21.5523 9 21 9H16C15.7249 9 15.4758 8.88894 15.295 8.70922C15.2936 8.70781 15.2922 8.7064 15.2908 8.70498C15.196 8.6096 15.1243 8.49986 15.0759 8.38278C15.027 8.26488 15 8.13559 15 8V3C15 2.44772 15.4477 2 16 2Z" />
<path d="M9.79289 7.79289C10.1834 7.40237 10.8166 7.40237 11.2071 7.79289L12.7071 9.29289C13.0976 9.68342 13.0976 10.3166 12.7071 10.7071C12.3166 11.0976 11.6834 11.0976 11.2929 10.7071L9.79289 9.20711C9.40237 8.81658 9.40237 8.18342 9.79289 7.79289Z" />
<path d="M4.79289 13.7929C5.18342 13.4024 5.81658 13.4024 6.20711 13.7929L7.70711 15.2929C8.09763 15.6834 8.09763 16.3166 7.70711 16.7071C7.31658 17.0976 6.68342 17.0976 6.29289 16.7071L4.79289 15.2071C4.40237 14.8166 4.40237 14.1834 4.79289 13.7929Z" />
<path d="M11.7071 13.2929C11.3166 12.9024 10.6834 12.9024 10.2929 13.2929C9.90237 13.6834 9.90237 14.3166 10.2929 14.7071L12.2929 16.7071C12.6834 17.0976 13.3166 17.0976 13.7071 16.7071C14.0976 16.3166 14.0976 15.6834 13.7071 15.2929L11.7071 13.2929Z" />
</svg>
